<svg xmlns="http://www.w3.org/2000/svg" width="540" height="210" viewBox="0 0 540 210"><g id="Layer_2" data-name="Layer 2"><g id="Layer_1-2" data-name="Layer 1"><path d="M0,0H540V180H270v30H150V180H0ZM30,150H90V60h30v90h30V30H30ZM180,30V180h60V150h60V30Zm60,30h30v60H240Zm90-30V150h60V60h30v90h30V60h30v90h30V30Z" style="fill:#cb3837"/><polygon points="30 150 90 150 90 60 120 60 120 150 150 150 150 30 30 30 30 150" style="fill:#fff"/><path d="M180,30V180h60V150h60V30Zm90,90H240V60h30Z" style="fill:#fff"/><polygon points="330 30 330 150 390 150 390 60 420 60 420 150 450 150 450 60 480 60 480 150 510 150 510 30 330 30" style="fill:#fff"/></g></g></svg>