<svg xmlns="http://www.w3.org/2000/svg" width="403.8475" height="77.8775" viewBox="0 0 403.8475 77.8775"><g id="Layer_2" data-name="Layer 2"><g id="Layer_1-2" data-name="Layer 1"><path d="M65.3825,46.5V0h6.3762V45.6275c0,18,9.75,26.375,23,26.375s23.1275-8.3763,23.1275-26.375V0h6.375V46.5c0,21.125-13,31.375-29.5025,31.375-16.5,0-29.3762-10.2525-29.3762-31.375" style="fill:#1c1c1c"/><path d="M138.52,21.25h6.25v8.875c3.375-5.2513,9.8763-10,17.7513-10,12.625,0,19.2512,8.125,19.2512,19.8762V76.7537h-6.125V40.875c0-8.625-4.375-15-14.2512-15-7.625,0-13.875,5.375-16.6263,12.0012v38.875h-6.25v-55.5" style="fill:#1c1c1c"/><path d="M201.8075,76.75h-6.25V21.25h6.25v55.5m-3.125-68.125a4.216,4.216,0,0,1-4.25-4.2513,4.2507,4.2507,0,0,1,8.5013,0,4.217,4.217,0,0,1-4.2513,4.2512" style="fill:#1c1c1c"/><path d="M219.2075,26.625h-9.3762V21.25h9.3762V6.9987h6.125V21.25h14.375v5.375h-14.375V63.25c0,6.25,2.75,8.9987,8,8.9987a15.4668,15.4668,0,0,0,7.625-2.1237v5.8762a18.689,18.689,0,0,1-8.25,1.875c-8.125,0-13.5-4.5012-13.5-14.0012V26.6225" style="fill:#1c1c1c"/><path d="M252.3825,67.5a4.8122,4.8122,0,0,1,0,9.6237,4.8156,4.8156,0,0,1,0-9.6237" style="fill:#1c1c1c"/><path d="M268.4075,21.25h6.25v8.875c3.375-5.2513,9.875-10,17.7513-10,12.625,0,19.2512,8.125,19.2512,19.8762V76.7537h-6.1262V40.875c0-8.625-4.375-15-14.25-15-7.625,0-13.875,5.375-16.6263,12.0012v38.875h-6.25v-55.5" style="fill:#1c1c1c"/><path d="M328.6825,44.625H363.06c-.3762-9.7512-5.2512-19.0025-16.25-19.0025-10,0-16.8762,7.3763-18.1262,19.0025m39.7537,16.0013c-2.1262,10.2487-9.8775,17.2512-21.5012,17.2512-14.6275,0-24.6275-11.6263-24.6275-28.875,0-16.5025,9.375-28.875,24.5012-28.875,14.7513,0,22.5,11.3762,22.5,27.1275v2.2475H328.4338c.1237,14.1262,7.7487,22.8787,18.5012,22.8787,7.8738,0,13.75-4.375,15.5-11.75h6.0013Z" style="fill:#1c1c1c"/><path d="M382.095,26.625H372.72V21.25h9.375V6.9987h6.125V21.25h14.3775v5.375H388.22V63.25c0,6.25,2.7525,8.9987,8.0013,8.9987a15.4752,15.4752,0,0,0,7.6262-2.1237v5.8762a18.6984,18.6984,0,0,1-8.2512,1.875c-8.125,0-13.5013-4.5012-13.5013-14.0012V26.6225" style="fill:#1c1c1c"/><path d="M48.5575,67.9375l-1.5737,1.575L28.1212,50.65,9.2587,69.5125l-1.5725-1.575L26.5487,49.075,7.6862,30.2125l1.5725-1.5738L28.1212,47.5012,46.9837,28.6387l1.5738,1.5738L29.695,49.075,48.5575,67.9375M56.25,31.8962,45.31,20.955,28.125,38.1412,10.9412,20.955,0,31.8962,17.185,49.08,0,66.265l10.9413,10.94L28.125,60.02,45.31,77.205l10.94-10.94L39.0663,49.08,56.25,31.8962"/></g></g></svg>