<svg xmlns="http://www.w3.org/2000/svg" width="255.11" height="289.322" viewBox="0 0 255.11 289.322"><g id="Layer_2" data-name="Layer 2"><g id="Layer_1-2" data-name="Layer 1"><path d="M255.11,0,231.869,260.36l-104.47,28.962L23.217,260.4,0,0Z" style="fill:#e44d26"/><path d="M127.555,267.184l84.417-23.403,19.86-222.49H127.555Z" style="fill:#f16529"/><path d="M82.375,85.166h45.18V53.229H47.472l.764,8.568,7.85,88.01h71.469V117.87H85.294Zm7.198,80.61H57.513l4.474,50.146,65.421,18.16.147-.04V200.814l-.14.037-35.568-9.604-2.274-25.471Z" style="fill:#ebebeb"/><path d="M127.445,149.807h39.327l-3.708,41.42-35.62,9.614v33.226l65.473-18.145.48-5.396,7.506-84.08.779-8.576H127.445v31.937Zm0-64.719v.078h77.143l.64-7.178,1.456-16.191.763-8.568H127.445V85.088Z" style="fill:#fff"/></g></g></svg>