<svg xmlns="http://www.w3.org/2000/svg" width="100%" height="100%" viewBox="0 0 68.33167 68.33168">
    <path d="M29.492,2.029,23.19621.35707A10.58045,10.58045,0,0,0,10.25448,7.86736L8.67918,13.799A32.39829,32.39829,0,0,1,29.492,2.029Z"/>
    <path d="M1.8981,39.33289l-1.541,5.80258A10.58045,10.58045,0,0,0,7.86736,58.07723l6.02845,1.601A32.41252,32.41252,0,0,1,1.8981,39.33289Z"/>
    <path d="M60.46432,10.25448,53.72568,8.46489A32.40214,32.40214,0,0,1,66.1234,30.1668l1.85118-6.97056A10.58041,10.58041,0,0,0,60.46432,10.25448Z"/>
    <path d="M38.68761,66.26225l6.44786,1.71237A10.58047,10.58047,0,0,0,58.0772,60.46435l1.8153-6.83543A32.4246,32.4246,0,0,1,38.68761,66.26225Z"/>
    <path d="M34.16586,4.54052a29.62534,29.62534,0,1,0,29.6253,29.62534A29.62533,29.62533,0,0,0,34.16586,4.54052ZM17.39008,19.32242a8.46439,8.46439,0,1,1,6.7111,9.91227A8.46446,8.46446,0,0,1,17.39008,19.32242ZM29.70073,44.91894a8.46438,8.46438,0,1,1-6.71107-9.91227A8.46435,8.46435,0,0,1,29.70073,44.91894Zm3.59386-6.85032A3.762,3.762,0,1,1,37.7,35.0859,3.762,3.762,0,0,1,33.29459,38.06862Zm17.647,10.94073a8.46436,8.46436,0,1,1-6.711-9.91227A8.46434,8.46434,0,0,1,50.94163,49.00935ZM45.34211,33.3251a8.46438,8.46438,0,1,1,9.91221-6.7111A8.46438,8.46438,0,0,1,45.34211,33.3251Z"/>
</svg>
