<svg xmlns="http://www.w3.org/2000/svg" x="0px" y="0px" width="186.2px" height="200px" viewBox="0 0 186.2 200">
    <style type="text/css">
        .st0 {
            fill: #dc1e33;
        }
        
        .st1 {
            fill: #c32032;
        }
        
        .st2 {
            fill: #ffffff;
        }
    </style>
    <defs></defs>
    <g>
        <polygon class="st0"
                 points="93.1,0 93.1,0 93.1,0 0,33.2 14.2,156.3 93.1,200 93.1,200 93.1,200 172,156.3 186.2,33.2 	"/>
        <polygon class="st1"
                 points="93.1,0 93.1,22.2 93.1,22.1 93.1,123.4 93.1,123.4 93.1,200 93.1,200 172,156.3 186.2,33.2 	"/>
        <path class="st2" d="M93.1,22.1L34.9,152.6l0,0h21.7l0,0l11.7-29.2h49.4l11.7,29.2l0,0h21.7l0,0L93.1,22.1L93.1,22.1L93.1,22.1
		L93.1,22.1L93.1,22.1z M110.1,105.4h-34l17-40.9L110.1,105.4z"/>
    </g>
</svg>
