<svg xmlns="http://www.w3.org/2000/svg" x="0px" y="0px" width="348.5px" height="311.5px" viewBox="0 0 348.5 311.5">
    <style type="text/css">
        .st0 {
            fill: #fefefe;
        }
        
        .st1 {
            fill: #333569;
        }
        
        .st2 {
            fill: #b8b4c9;
        }
        
        .st3 {
            fill: #03c0e2;
        }
        
        .st4 {
            fill: #302e4c;
        }
        
        .st5 {
            fill: #1e1e3d;
        }
        
        .st6 {
            fill: #2e2d4b;
        }
        
        .st7 {
            fill: #33324d;
        }
        
        .st8 {
            fill: #383650;
        }
        
        .st9 {
            fill: #343567;
        }
        
        .st10 {
            fill: #3a3853;
        }
        
        .st11 {
            fill: #101134;
        }
        
        .st12 {
            fill: #3a3852;
        }
        
        .st13 {
            fill: #101234;
        }
        
        .st14 {
            fill: #131435;
        }
        
        .st15 {
            fill: #252441;
        }
        
        .st16 {
            fill: #121335;
        }
        
        .st17 {
            fill: #111234;
        }
        
        .st18 {
            fill: #2f2e49;
        }
        
        .st19 {
            fill: #363451;
        }
        
        .st20 {
            fill: #151637;
        }
        
        .st21 {
            fill: #2a2946;
        }
        
        .st22 {
            fill: #1e1d3d;
        }
        
        .st23 {
            fill: #232340;
        }
        
        .st24 {
            fill: #191939;
        }
        
        .st25 {
            fill: #191a39;
        }
        
        .st26 {
            fill: #ffffff;
        }
        
        .st27 {
            fill: #282744;
        }
    </style>
    <defs></defs>
    <g>
        <path class="st0" d="M348.4,201.4c0,36.1,0,72.2,0,108.3c0,1.5-0.3,1.8-1.8,1.8c-115,0-229.9,0-344.9,0c-1.5,0-1.8-0.3-1.8-1.8
		C0,207,0,104.4,0,1.8C0,0.3,0.3,0,1.8,0C39.2,0.1,76.6,0,114,0c-0.2,1.2-1.3,0.9-2,1.1c-3.4,0.6-6.5,1.8-9,4.5
		c-4.3,4.6-3.7,12.1,1.2,16.1c2.9,2.3,6.2,4,9.4,5.8c2,1.2,4,2.3,5.8,3.8c2.9,2.3,3.9,5.3,3.3,8.9c-0.7,3.6-3,5.8-6.5,6.6
		c-4.8,1.1-9.5,0.6-14-1.4c-0.7-0.3-1.7-1.7-2.2-0.2c-0.5,1.1-0.4,2.6,1.2,3.3c2,0.8,4,1.3,6.1,1.5c3.5,0.3,7,0.3,10.6-0.7
		c9.7-2.7,10.4-14.6,4.9-19.3c-3.4-2.9-7.3-5-11.1-7.2c-1.3-0.8-2.6-1.5-3.9-2.4c-3.4-2.4-5-6.3-4.1-9.6c0.9-3.5,4.3-6.3,8.3-6.7
		c3.5-0.4,6.9-0.2,10.3,0.9c0.6,0.2,1.4,1.1,2,0c0.5-1-0.2-2.6-1.3-3c-1.3-0.4-2.7-0.7-4-0.8c-0.7-0.1-1.7,0.2-1.8-1
		c76.4,0,152.9,0,229.3,0c1.7,0,2.1,0.3,2.1,2.1c-0.1,63.4,0,126.8,0,190.2c-0.2,0.1-0.4,0.1-0.6-0.1c-0.8-2.7-0.4-5.4-0.8-8.2
		c-1.3-8.9-3.6-17.4-9-24.9c-6.1-8.4-14.5-13.1-24.7-14.6c-13.4-1.8-25.5,1-36,9.7c-8.4,7-13.5,16.1-16.6,26.5
		c-1,3.3-1.5,6.8-2,10.2c-0.5,5.5-0.4,10.9-0.1,16.4c0.7,5.5,1.6,10.9,3.4,16.1c5.7,16.6,16.9,27,34.5,29.8
		c4.8,0.8,9.6,0.4,14.4,0.4c5.7-0.6,11.3-1.6,16.7-3.5c4.4-1.6,8.5-3.6,12.4-6.2c0.7-0.4,0.9-1,0.9-1.8c0-2.9,0-5.9,0-8.8
		c0-0.4,0.1-1.1-0.8-0.8c-6.2,4.3-12.7,8-20.1,9.6c-9.6,2.1-19.2,2.5-28.5-1.8c-9.4-4.3-15-11.8-18.1-21.4c-1.3-4-1.9-8-2.5-12.1
		c0-2-0.5-3.9,0.4-5.8c0.2-0.2,0.5-0.3,0.7-0.4c0.9-0.2,1.9-0.1,2.8-0.1c23.3,0,46.6,0,70,0c0.9,0,1.9-0.1,2.8,0.2
		C348,201.1,348.2,201.2,348.4,201.4z"/>
        <path class="st1" d="M117,0c1.8,0.3,3.5,0.6,5.3,0.9c1.7,0.3,3,0.9,2.6,3.1c-0.2,0.8,0,1.6,0,2.6c-3.9-2.1-8-2.7-12.2-2.3
		c-5.5,0.5-9,4.2-8.6,9c0.3,3.7,2.9,5.8,5.8,7.5c3.7,2.2,7.5,4.1,11.1,6.5c7.9,5.3,7.2,15.1,2.1,19.5c-2.6,2.2-5.7,3.3-9,3.6
		c-4.3,0.4-8.5,0-12.6-1.4c-1.7-0.6-2.6-1.3-2.3-3.2c0.1-0.8,0-1.7,0-2.9c2.8,1.7,5.5,3,8.5,3.4c3,0.4,6,0.5,9-0.4
		c6.1-1.9,7.7-9.4,2.9-13.8c-2.7-2.5-6-3.9-9-5.7c-3.1-1.8-6.4-3.4-8.7-6.3C97,14,99.7,5,107.2,1.8c2.2-0.9,4.6-1.1,6.8-1.7
		C115,0,116,0,117,0z"/>
        <path class="st2" d="M348.1,192.2l0.2-0.1l0.1,0.1c0,3,0,6.1,0,9.1c-0.2,0-0.3,0-0.5,0c-0.3-0.3-0.5-0.7-0.5-1.1
		c-0.2-2-0.1-4-0.1-5.9C347.4,193.6,347.4,192.7,348.1,192.2z"/>
        <path class="st1" d="M116.5,298.7c4-0.6,8-0.6,12-1.2c16.4-2.5,31.4-8.5,44.8-18.3c3.9-2.8,7.6-6,11-9.4c0.7-0.7,1-0.5,1.5,0
		c2.2,2.3,4.4,4.6,6.6,6.9c0.9,0.9,0.7,1.5-0.2,2.3c-12.8,12.1-27.5,21-44.3,26.4c-9.5,3-19.3,4.8-29.3,5.2
		c-25.3,1.1-48.4-5.4-69.3-19.8c-21.3-14.6-35.6-34.5-43.5-59c-4.3-13.3-5.6-27-5-41c0.9-22,7.6-42.1,19.9-60.4
		c11.9-17.7,27.9-30.6,47.4-39.2c10.4-4.6,21.4-7.3,32.6-8.7c1.4-0.2,2.7-0.2,4.1-0.3c5.5,0.1,11,0.1,16.5,0
		c14.1,1,27.6,4.5,40.5,10.6c11.3,5.4,21.5,12.3,30.4,21.1c1,1,0.9,1.5,0,2.4c-2.2,2.1-4.3,4.3-6.3,6.6c-0.8,0.9-1.2,0.6-1.8,0
		c-7-6.9-14.9-12.6-23.6-17.2c-9.6-5-19.6-8.5-30.4-10.1c-2.7-0.4-5.4-0.8-8.1-1.2c0.1-0.6-0.3-0.3-0.5-0.3c-5.3,0-10.6-0.1-15.9,0
		c-0.2,0-0.6-0.1-0.6,0.3c-4.2,0.7-8.4,1.1-12.5,2c-13.7,3-26.3,8.5-37.7,16.8c-14.6,10.6-25.7,24.1-33,40.7
		c-3.5,7.9-5.9,16.2-7.1,24.9c-0.5,3.4-0.5,6.7-1.1,10.1c-0.7,0.1-0.3,0.6-0.3,0.9c0,4.1,0,8.2,0,12.2c0,0.4-0.3,1,0.3,1.3
		c0.4,3.3,0.7,6.6,1.2,9.8c1.9,13.5,6.4,26,13.6,37.5c15.3,24.4,37.2,39.5,65.2,45.7c5.5,1.2,11,1.9,16.7,2c0.3,0,0.5,0.1,0.8,0.2
		c0,0.1-0.1,0.1-0.1,0.2c-0.3,0.1-0.3,0.1,0,0.1c1.8,0,3.6,0,5.4,0c0,0,0.1,0,0.2,0C116.8,298.8,116.4,298.9,116.5,298.7z"/>
        <path class="st3" d="M113.2,157.5c8.1,0.1,15.8,1.7,22.3,6.9c6,4.7,9.7,10.9,11.6,18.2c2.6,9.9,2.7,19.9-0.4,29.7
		c-4.3,13.2-13.3,21.5-27.2,23.9c-8.1,1.4-16.2,0.9-23.7-2.8c-10-4.8-15.9-12.9-18.4-23.6c-2.7-11.4-2.1-22.6,3.1-33.3
		c4.9-10.2,13.3-16.1,24.4-18.1C107.6,157.9,110.4,157.4,113.2,157.5z"/>
        <path class="st1" d="M348.1,192.2c-0.1,2.8-0.1,5.5-0.2,8.3c-0.8,0.9-1.9,0.7-2.8,0.7c-23.6,0-47.2,0-70.8,0
		c-0.8,0-1.6-0.1-2.4,0.1c-0.2,0-0.4,0.1-0.5,0.1c-0.1,2-0.5,3.9,0.2,5.9c0.7,4.9,1.5,9.8,3.4,14.4c4.2,10.5,11.5,17.8,22.5,20.4
		c10.9,2.6,21.6,1.2,31.9-3.6c3.8-1.8,7.2-4,10.7-6.3c1.1-0.4,1.2,0.2,1.2,1.1c0,3.1,0,6.2,0,9.3c0,0.9-0.4,1.5-1.1,2
		c-5.5,4.2-11.9,6.5-18.6,8.2c-3.3,0.8-6.7,1.3-10.2,1.6c-5.2-0.2-10.4,0.1-15.6-0.4c-9.4-1.6-17.7-5.5-24.3-12.6
		c-6.2-6.7-9.7-14.7-11.8-23.4c-0.8-3.4-1.3-6.9-1.6-10.4c0.1-5.5,0.1-11,0-16.5c0.9-7.3,2.8-14.4,6.2-21
		c7-13.5,17.4-22.6,32.5-25.6c9.5-1.9,18.8-1.2,27.6,2.8c10.2,4.6,16.4,12.9,20,23.2C347,177.5,348.1,184.8,348.1,192.2z"/>
        <path class="st1" d="M206.2,252.1c-3.7,0-7.4-0.1-11.1,0.1c-1.3,0.1-1.5-0.4-1.5-1.6c0-32.7,0.1-65.4,0.1-98.1c0-1.8,0.1-3.6,0-5.4
		c0-1,0-1.4,1.2-1.4c3.8,0.1,7.5,0.1,11.3,0.1c0.4,2.6,0.1,5.3,0.2,8c0.1,4.2,0,8.5,0,12.7c0,0.7-0.3,1.4,0.3,2.1
		c1.4-0.5,1.2-1.9,1.6-3c2.9-7.2,6.9-13.5,13.7-17.7c7.2-4.4,14.8-5.2,22.8-2.7c0.6,0.3,1.1,0.6,1.1,1.5c-0.1,3.5,0,7,0,10.6
		c0,0.4,0.2,1.1-0.7,1c-4.3-1.9-8.7-2.7-13.4-2.2c-6,0.6-10.8,3.4-14.5,8c-6.2,7.6-8.7,16.6-10,26.1c-0.3,2.2,0,4.5-0.7,6.6
		c-0.6,0.6-0.3,1.4-0.3,2c0,17,0,34,0,51C206.4,250.5,206.6,251.4,206.2,252.1z"/>
        <path class="st1" d="M189.3,1.1c3.5-0.9,5.1,1.1,6.8,3.8c7.9,11.8,16.1,23.5,24.2,35.2c0.5,0.8,1,1.5,1.5,2.4
		c0.3,0.5,0.6,0.6,0.9,0.1c-0.2-0.6-0.2-1.1-0.2-1.7c0-12.6,0-25.2,0-37.7c0-0.4,0-0.9,0.1-1.3c0.8-0.6,1.7-0.4,2.5-0.4
		c0.9,0,1.3,0.5,1.3,1.4c0,0.5,0,1,0,1.5c0,14.2,0,28.3,0,42.5c0,2.9,0.3,2.6-2.7,2.6c-0.6,0-1.3,0.2-1.9-0.2
		c-3.6-5.2-7.3-10.4-10.9-15.6c-5.3-7.6-10.5-15.2-15.8-22.8c-0.6-0.9-1.1-1.8-1.7-2.8c-0.2-0.4-0.4-0.9-0.8-0.2
		c-0.2,7.6,0,15.2-0.1,22.8c0,5.6,0,11.3,0,16.9c0,1.2-0.2,1.8-1.6,1.8c-1.3,0-2.1-0.3-2.1-1.8c0-0.5,0-1,0-1.5
		c0-13.8,0-27.7,0-41.5C188.8,3.5,188.7,2.2,189.3,1.1z"/>
        <path class="st1" d="M60.5,35.2c-1.5,3.9-3,7.8-4.3,11.8c-0.7,2-1.5,3.3-3.9,2.8c-0.6-0.1-1.3,0-2.1,0c2.1-5.6,4.2-10.9,6.2-16.3
		c3.9-10.2,7.9-20.5,11.6-30.8C69,0.3,70.6,1.3,72,1c1.5-0.4,1.6,0.8,1.9,1.7c5.7,15,11.3,30,17,44.9c0.2,0.6,0.5,1.3,0.9,2.2
		c-1.5,0-2.9,0-4.3,0c-1.1,0-1-0.9-1.2-1.5c-1.7-4.4-3.3-8.8-4.9-13.2C74.4,35,67.5,34.9,60.5,35.2z"/>
        <path class="st1" d="M156.5,1.8c5.4,0.5,10.2,5.4,10.6,10.9c0.2,3.4,0.1,6.7-1.6,9.9c-3.1,5.9-8.5,7.9-14.7,8.2
		c-2.5,0.1-5.1,0.2-7.6-0.1c-0.6,0.6-0.3,1.4-0.3,2.1c0,4.9-0.1,9.8,0,14.8c0,1.5-0.4,2-1.9,2c-1.6,0-2.1-0.5-2.1-2.1
		c0.1-14.6,0-29.3,0-43.9c0-1.2,0-2.2,1.6-2.1C145.9,1.4,151.2,1.1,156.5,1.8z"/>
        <path class="st1" d="M241,1.1c6.7,0,13.3,0,20,0c3.4,0,3.4-0.8,3.3,3.4c-5.1,0.4-10.2,0-15.3,0.2c-1.3,0-2.7-0.4-4,0.3
		c-0.1,0.1-0.1,0.3-0.2,0.4c-0.1,5.9-0.3,11.9,0.1,17.8l0,0c1.8,0.5,3.6,0.2,5.4,0.2c3.6,0.1,7.2,0.1,10.8,0c1.4,0,1.4,0.8,1.4,1.8
		c0,1.1-0.1,1.8-1.5,1.7c-4.7-0.1-9.4,0-14.1,0c-0.7,0-1.4-0.3-2.1,0.3L245,27c-0.5,0.6-0.3,1.4-0.3,2.1c0.1,5.5-0.3,11.1,0.2,16.6
		c5.8,0,11.6,0,17.4,0.1c0.9,0,1.7,0.1,2.6,0.1c0.3,0.4,0.2,1,0.2,1.5c0.2,1.6-0.3,2.1-2,2.1c-6.8-0.1-13.6-0.1-20.4,0
		c-1.5,0-2-0.4-2-1.9c0.1-14.7,0.1-29.4,0-44.1c0-1.6,0.6-1.9,2-1.9c6.1,0.1,12.1,0,18.2,0c-6,0-12,0-18,0
		C242.3,1.5,241.5,2,241,1.1z"/>
        <path class="st4" d="M189.3,1.1c0,15.3,0,30.6,0,45.9c0,0.8-0.5,1.9,0.7,2.2c1.3,0.3,2.4,0.2,2.3-1.7c-0.1-5.2,0-10.4,0-15.7
		c0-7.1,0-14.2,0-21.3c0-0.8-0.2-1.7,0.3-2.5c0.1,1.4,0.3,2.7,0.3,4.1c0,11.9,0,23.9,0,35.8c0,0.7,0.5,1.8-0.5,2
		c-1.2,0.2-2.4,0-3.7-0.1c-0.5-0.1-0.1-0.6-0.1-0.9c0-15.6,0-31.2-0.1-46.9C188.5,1.2,188.5,0.9,189.3,1.1z"/>
        <path class="st5" d="M156.5,1.8c-5.1,0-10.3,0.1-15.4,0c-1.4,0-1.8,0.5-1.8,1.9c0,14.6,0,29.2,0,43.9c0,1.3,0.4,1.7,1.7,1.7
		c1.2,0,1.8-0.3,1.8-1.7c-0.1-4.9,0-9.8,0-14.8c0-0.7-0.4-1.6,0.5-2.1c0,5.8-0.1,11.6-0.1,17.4c0,1.2,0,2.1-1.6,1.8
		c-1.2-0.2-2.8,0.8-2.8-1.8c0.1-15.1,0.1-30.3,0-45.4c0-1.2,0.3-1.6,1.5-1.5c5,0.2,10-0.2,15,0.3C155.7,1.4,156.2,1.3,156.5,1.8z"/>
        <path class="st6" d="M285.7,4.9c-4.3,0-8.6-0.1-12.9,0c-1.1,0-1.1-0.4-1.2-1.3c-0.2-2.1,0.4-2.8,2.7-2.7c9.4,0.2,18.8,0.2,28.3,0
		c2.4,0,1.4,1.4,1.7,2.4c0.3,1.4-0.3,1.6-1.6,1.5c-4.1-0.1-8.2-0.1-12.3-0.1c0-0.1-0.1-0.2-0.1-0.4c0.7-0.9,1.7-0.7,2.6-0.8
		c2.5,0,5.1,0,7.6,0c0.8,0,1.6,0.1,2.3-0.5c-1.7-1-27.2-1.1-29.1-0.1c0.5,0.9,1.4,0.6,2.1,0.7c2.5,0,4.9,0,7.4,0
		c0.9,0,1.9-0.1,2.7,0.5C285.9,4.5,285.9,4.7,285.7,4.9z"/>
        <path class="st7" d="M241,1.1c1.6,0.6,3.3,0.2,4.9,0.2c5.6,0.1,11.1,0,16.7,0.5c-0.9,0-1.9,0-2.8,0c-5.7,0-11.3,0-17,0
		c-1.5,0-2,0.4-2,1.9c0.1,14.5,0.1,29,0,43.5c0,1.7,0.5,2.1,2.1,2c6.2-0.1,12.3,0,18.5,0c3.7,0,3.3,0.6,3.3-3.3
		c1,1.1,0.3,2.4,0.4,3.6c0,0.7-0.6,0.4-1,0.4c-7.6,0-15.1,0-22.7,0c-1.4,0-1-0.9-1-1.5c0-7.2,0-14.3,0-21.5c0-8,0-15.9,0-23.9
		C240.6,2.3,240,1.4,241,1.1z"/>
        <path class="st8" d="M271.9,201.3c0.8-0.5,1.7-0.3,2.5-0.3c23.4,0,46.7,0,70.1,0c1.2,0,2.3,0,3.4-0.5c0,0.3,0,0.6,0,0.9
		c-24.9,0-49.9,0-74.8,0C272.7,201.4,272.3,201.3,271.9,201.3z"/>
        <path class="st9" d="M173.4,50.5c-1.9,0-3.3-1.4-3.3-3.2c0-1.8,1.5-3.2,3.3-3.2c1.7,0,3.2,1.4,3.3,3.1
		C176.7,48.9,175.2,50.5,173.4,50.5z"/>
        <path class="st10" d="M221.8,49.2c4.4,0,4.4,0,4.4-4.5c0-13.2,0-26.3,0-39.5c0-4,0.5-3.4-3.5-3.5c-0.1,0.2-0.3,0.2-0.4,0
		c0.9-1.7,2.4-0.5,3.6-0.7c1.1-0.2,0.6,0.9,0.6,1.4c0,15.3,0,30.6,0.1,45.8c0,1.2-0.3,1.8-1.5,1.5C224.1,49.6,222.7,50.5,221.8,49.2
		z"/>
        <path class="st11" d="M206.2,252.1c0-18.3,0-36.5,0-54.8c0-0.1-0.7-1.2,0.5-0.6c0,17.7,0,35.4-0.1,53
		C206.6,250.6,207.1,251.5,206.2,252.1z"/>
        <path class="st12" d="M290.2,4.9c0,15,0,30,0,44.9c-1.3,0-2.4,0-3.6,0c-0.5,0-0.9,0-0.7-0.7c0.2-0.2,0.4-0.3,0.7-0.5
		c2.1-0.1,2.5-1.4,2.5-3.2c0-12.4,0-24.9,0-37.3C289.1,7,288.5,5.5,290.2,4.9L290.2,4.9z"/>
        <path class="st13" d="M286.3,49.2c-0.1,0-0.3,0-0.4,0c0-14,0-28.1-0.1-42.1c0-0.7-0.1-1.4-0.1-2.2c0,0,0.1-0.1,0.1-0.1
		c1.4,0.5,1.1,1.7,1.1,2.7c0.1,5,0,10,0,14.9c0,7.8,0,15.6,0,23.4C286.9,47,287.1,48.2,286.3,49.2z"/>
        <path class="st14" d="M222.4,1.8c0.1,0,0.3,0,0.4,0c0,13.6,0,27.1,0,40.7c-0.4-0.3-0.4-0.7-0.4-1.2C222.3,28.1,222.4,15,222.4,1.8z
		"/>
        <path class="st15" d="M244.9,27.1c0.6-0.9,1.4-0.5,2.2-0.5c4.5,0,8.9,0,13.4,0c1.2,0,1.9-0.2,1.8-1.6c0-1.4-0.7-1.5-1.8-1.5
		c-4.5,0-8.9,0-13.4,0c-0.8,0-1.6,0.3-2.2-0.4c5.4,0,10.9,0.1,16.3,0c1.7,0,1.7,0.7,1.6,1.9c0,1.1,0.3,2.2-1.6,2.1
		C255.8,26.9,250.3,27.1,244.9,27.1z"/>
        <path class="st16" d="M206.7,168.6c-0.9-0.6-0.5-1.4-0.5-2.2c0-6.9,0-13.7,0-20.6c1,0.4,0.4,1.2,0.4,1.8
		C206.7,154.7,206.7,161.7,206.7,168.6z"/>
        <path class="st17" d="M60.5,35.2c0.3-0.4,0.7-0.4,1.2-0.4c6.1,0,12.3,0,18.4,0c0.4,0,0.8,0.2,1.2,0.3
		C74.4,35.2,67.5,35.2,60.5,35.2z"/>
        <path class="st18" d="M105.1,94.5c-0.5-0.6,0-0.5,0.3-0.5c5.6,0,11.1,0,16.7,0c0.2,0,0.6,0.1,0.6,0.1c0,0.4-0.4,0.3-0.6,0.4
		C116.4,94.5,110.7,94.5,105.1,94.5z"/>
        <path class="st13"
              d="M245,4.9c0.5-0.9,1.4-0.5,2.2-0.5c5.7,0,11.4,0,17.2,0c0,1-0.7,0.5-1.1,0.5C257.1,4.9,251.1,4.9,245,4.9z"/>
        <path class="st19"
              d="M258.1,191c0.7,3.6,0.2,7.2,0.3,10.7c0,1.9,0.4,3.9-0.3,5.8C257.6,202,257.6,196.5,258.1,191z"/>
        <path class="st16" d="M244.9,45.7c-0.1,0-0.2-0.1-0.2-0.1c-0.5-6.1-0.3-12.2-0.1-18.2c0-0.1,0.2-0.2,0.3-0.3
		C244.9,33.2,244.9,39.5,244.9,45.7z"/>
        <path class="st20" d="M244.9,23.1c-0.4-0.3-0.4-0.7-0.4-1.2c0-5.3,0-10.5,0-15.8c0-0.3,0.2-0.5,0.3-0.8
		C244.8,11.2,244.9,17.2,244.9,23.1z"/>
        <path class="st21" d="M295.8,253.9c2.2-1,4.4,0.2,6.6,0.2c3,0,6-0.4,9,0.2C306.2,254.5,301,254.8,295.8,253.9z"/>
        <path class="st22" d="M13.6,203.4c-0.9,0.4-0.5-0.4-0.5-0.6c0-4.9,0-9.9,0-14.9c0.7,0.2,0.3,0.7,0.5,1
		C13.6,193.8,13.6,198.6,13.6,203.4z"/>
        <path class="st23"
              d="M121.4,82.4c-3.6,0.6-7.3,0.2-10.9,0.3c-1.8,0-3.7,0.3-5.5-0.3C110.4,82.1,115.9,82.1,121.4,82.4z"/>
        <path class="st24" d="M245.3,158.3c0.7-0.4,0.5-1.1,0.5-1.8c0-3-0.1-6.1,0-9.1c0-1-0.4-1.6-0.9-2.2c0.7,0,1.4,0,1.4,1.1
		c-0.1,4,0,8.1,0,12.1c0,0.2,0.3,0.6-0.2,0.6C245.8,159,245.5,158.6,245.3,158.3z"/>
        <path class="st25" d="M340.2,244.5c0.6-0.8,0.9-1.7,0.9-2.8c-0.1-2.6,0-5.2,0-7.8c0-0.8,0.2-1.7-1-1.7c0.4-0.4,0.8-0.8,1.5-1.4
		c0,4.3,0,8.3,0,12.3C341.5,244,341,244.4,340.2,244.5z"/>
        <path class="st11" d="M116.5,298.7c0.3,0.1,0.7,0.2,1.6,0.4c-3.1,0-5.5,0-8.5,0c0.9-0.2,1.3-0.3,1.6-0.4
		C112.9,298.7,114.7,298.7,116.5,298.7z"/>
        <path class="st8"
              d="M271.5,207.3c-0.2,0-0.3,0.1-0.5,0.1c0.1-2-0.4-4,0.3-6C271.4,203.3,271.5,205.3,271.5,207.3z"/>
        <path class="st26" d="M271.9,190.1c-0.1-4.2,1.2-8.2,2.6-12c3.7-10.1,9.9-18.2,20.6-21.6c9.9-3.1,19.5-2.7,28,3.9
		c5.5,4.2,8.4,10.1,10,16.6c1.1,4.3,1.7,8.6,1.3,13c-0.5,0.3-1.1,0.2-1.7,0.2c-19.7,0-39.5,0-59.2,0
		C273.1,190.3,272.5,190.4,271.9,190.1z"/>
        <path class="st11" d="M271.9,190.1c0.6-0.1,1.3-0.2,1.9-0.2c19.6,0,39.1,0,58.7,0c0.6,0,1.3,0.1,1.9,0.1c-0.6,0.7-1.3,0.4-2,0.4
		c-19.4,0-38.7,0-58.1,0C273.6,190.5,272.6,190.9,271.9,190.1z"/>
        <path class="st26" d="M61.8,31.2c3-8.3,6.1-16.6,9.2-24.9c0.9,0.7,0.5,2,0.9,3.1c2.6,6.8,5.1,13.7,7.7,20.6
		c0.2,0.5,0.5,0.9,0.1,1.4c-5.8,0.2-11.5,0.1-17.3,0.1C62,31.6,62,31.3,61.8,31.2z"/>
        <path class="st8" d="M61.8,31.2c5.1,0.1,10.2,0.1,15.2,0.2c0.9,0,1.7,0.1,2.6,0.1c-1.1,0.7-2.2,0.3-3.4,0.3c-4.1,0.1-8.2,0-12.3,0
		C63.2,31.8,62.3,32.1,61.8,31.2z"/>
        <path class="st26" d="M143.3,4.8c3.2,0.1,6.4,0.2,9.6,0.4c6.1,0.3,9.7,4,9.8,9.9c0.2,6-4,10.9-9.7,11.4c-3.3,0.3-6.6,0.4-9.9,0
		c-0.3-7.1-0.1-14.2-0.1-21.2C142.9,5.1,143.2,5,143.3,4.8z"/>
        <path class="st27" d="M143.3,4.8c-0.4,6-0.1,12.1-0.2,18.1c0,1.2,0,2.4-0.1,3.7c-0.4-0.4-0.4-0.9-0.4-1.4c0-6.2,0-12.4,0-18.6
		C142.7,5.9,142.5,5.2,143.3,4.8z"/>
        <path class="st11"
              d="M143.6,27.1c2.6,0,5.1,0,7.7,0c0,0.1,0,0.1,0,0.2c-2.6,0-5.1,0-7.7,0C143.6,27.2,143.6,27.2,143.6,27.1z"/>
        <path class="st1" d="M286.3,49.2c0-13.9,0-27.9-0.1-41.8c0-0.8,0.3-1.7-0.4-2.5c-0.5-0.7-1.3-0.4-2-0.4c-3.3,0-6.6,0-10,0
		c-0.9,0-1.5-0.1-1.5-1.3c0-1.1,0.5-1.4,1.4-1.3c9.5,0,18.9,0,28.4,0c0.9,0,1.5,0.2,1.5,1.3c0,1.1-0.5,1.3-1.5,1.3
		c-3.3,0-6.5,0-9.8,0c-0.8,0-1.6-0.3-2.2,0.4c-0.8,0.7-0.4,1.6-0.4,2.5c0,12.8,0,25.6,0,38.5C289.7,49.7,290.3,49.1,286.3,49.2z"/>
    </g>
</svg>
