<svg xmlns="http://www.w3.org/2000/svg" x="0px" y="0px" width="255.6px" height="287.3px" viewBox="0 0 255.6 287.3">
    <style type="text/css">
        .st0 {
            fill: #967ab7;
        }
        
        .st1 {
            fill: #2d2164;
        }
        
        .st2 {
            fill: #3f2d87;
        }
        
        .st3 {
            fill: #ffffff;
        }
    </style>
    <defs></defs>
    <g>
        <path class="st0" d="M255.6,84.5c0-4.8-1-9.1-3.1-12.8c-2.1-3.6-5.1-6.6-9.2-9c-34-19.6-68.1-39.2-102.1-58.8
		c-9.2-5.3-18.1-5.1-27.2,0.3c-13.5,8-81.3,46.8-101.6,58.5C4.1,67.5,0,74.9,0,84.4c0,39.5,0,78.9,0,118.4c0,4.7,1,8.9,3,12.5
		c2.1,3.7,5.2,6.8,9.4,9.3c20.2,11.7,88,50.5,101.6,58.5c9.1,5.4,18,5.6,27.2,0.3c34-19.6,68.1-39.2,102.1-58.8
		c4.2-2.4,7.3-5.5,9.4-9.3c2-3.6,3-7.8,3-12.5C255.6,202.8,255.6,123.9,255.6,84.5"/>
        <path class="st1" d="M128.2,143.2L3,215.3c2.1,3.7,5.2,6.8,9.4,9.3c20.2,11.7,88,50.5,101.6,58.5c9.1,5.4,18,5.6,27.2,0.3
		c34-19.6,68.1-39.2,102.1-58.8c4.2-2.4,7.3-5.5,9.4-9.3L128.2,143.2"/>
        <path class="st2" d="M255.6,84.5c0-4.8-1-9.1-3.1-12.8l-124.3,71.6l124.4,72.1c2-3.6,3-7.8,3-12.5
		C255.6,202.8,255.6,123.9,255.6,84.5"/>
        <path class="st3" d="M201.9,116.3v13.5h13.5v-13.5h6.7v13.5h13.5v6.7h-13.5V150h13.5v6.7h-13.5v13.5h-6.7v-13.5h-13.5v13.5h-6.7
		v-13.5h-13.5V150h13.5v-13.5h-13.5v-6.7h13.5v-13.5H201.9z M215.4,136.5h-13.5V150h13.5V136.5z"/>
        <path class="st3" d="M128.5,48.6c35.1,0,65.8,19.1,82.3,47.5l-0.2-0.3l-41.3,23.8c-8.1-13.8-23.1-23.1-40.2-23.3l-0.5,0
		c-26.1,0-47.3,21.2-47.3,47.3c0,8.5,2.3,16.6,6.2,23.5c8.2,14.2,23.5,23.8,41.1,23.8c17.7,0,33.1-9.7,41.2-24.1l-0.2,0.3l41.3,23.9
		c-16.3,28.1-46.5,47.2-81.3,47.5l-1.1,0c-35.3,0-66-19.2-82.4-47.7c-8-13.9-12.6-30.1-12.6-47.3C33.5,91.2,76,48.6,128.5,48.6z"/>
    </g>
</svg>
