<svg xmlns="http://www.w3.org/2000/svg" x="0px" y="0px" width="256px" height="282.7px" viewBox="0 0 256 282.7">
    <style type="text/css">
        .st0 {
            fill: #c54027;
        }
        
        .st1 {
            fill: #ffffff;
        }
    </style>
    <defs></defs>
    <g>
        <path class="st0" d="M240,139.2c0-14.5-11.8-26.3-26.3-26.3c-0.9,0-1.9,0-2.8,0.1L247,6.4H93.4l36.1,106.5c-0.5,0-1.1-0.1-1.6-0.1
		c-14.5,0-26.3,11.8-26.3,26.3c0,11.7,7.7,21.7,18.3,25.1c-5.6,9.7-12.7,18.5-20.7,26c-10.9,10.3-23.4,18.1-36.9,22.9
		c-16.1-8.3-23.7-26.6-16.8-42.7c0.8-1.8,1.6-3.7,2.3-5.5c11.6-2.7,20.3-13.2,20.3-25.6c0-14.5-11.8-26.3-26.3-26.3
		c-14.5,0-26.3,11.8-26.3,26.3c0,8.9,4.4,16.8,11.2,21.5c-6.5,14.8-16.1,30.4-19.1,48.3c-3.6,21.6,0,44.4,18.6,57.4
		c43.4,30.1,90.6-18.7,140.3-30.9c18-4.4,37.8-3.7,53.7-12.9c11.9-6.9,19.8-18.3,22-31.2c2.2-12.7-1-25.3-8.4-35.6
		C237.7,151.5,240,145.6,240,139.2L240,139.2z M154.2,139.3C154.2,139.3,154.2,139.2,154.2,139.3c0-9.6-5.1-18-12.7-22.6l28.7-58.1
		l28.8,58.7c-7.1,4.7-11.7,12.8-11.7,21.9c0,0.2,0,0.4,0,0.6L154.2,139.3L154.2,139.3z"/>
        <path class="st1" d="M246.4,139.2c0-16-11.5-29.3-26.7-32.2L256,0H84.5l36.3,107.2c-14.6,3.3-25.6,16.3-25.6,32
		c0,11.7,6.2,22,15.5,27.8c-4.5,6.7-9.8,12.9-15.8,18.6c-9.6,9.1-20.3,16-31.9,20.5C51.3,198.8,46.4,185,51.5,173l0.4-0.9
		c0.3-0.6,0.5-1.2,0.8-1.8c12.8-4.5,22-16.6,22-30.9c0-18.1-14.7-32.7-32.7-32.7S9.1,121.3,9.1,139.4c0,9.1,3.7,17.4,9.8,23.3
		c-1.1,2.3-2.2,4.7-3.4,7.1C10,181.1,3.7,194,1.4,208.2c-4.7,28.3,2.9,50.9,21.3,63.7c11.2,7.8,22.5,10.8,34,10.8
		c21.5,0,43.3-10.8,64.6-21.4c15.3-7.6,31.2-15.5,46.9-19.4c5.8-1.4,11.8-2.3,18.2-3.2c12.6-1.8,25.6-3.7,37.2-10.4
		c13.4-7.7,22.5-20.7,25.1-35.6c2.2-12.8-0.5-25.6-7-36.5C244.6,151.3,246.4,145.4,246.4,139.2L246.4,139.2z M233.5,139.2
		c0,11-8.9,19.9-19.9,19.9c-11,0-19.9-8.9-19.9-19.9c0-11,8.9-19.9,19.9-19.9C224.6,119.3,233.5,128.2,233.5,139.2L233.5,139.2z
		 M238.1,12.9l-32,94.5c-1.4,0.3-2.7,0.8-4.1,1.3L170.3,44l-31.7,64.2c-1.4-0.5-2.8-0.9-4.2-1.1l-31.9-94.2H238.1L238.1,12.9z
		 M127.9,119.3c11,0,19.9,8.9,19.9,19.9c0,11-8.9,19.9-19.9,19.9c-11,0-19.9-8.9-19.9-19.9C108,128.2,117,119.3,127.9,119.3
		L127.9,119.3z M41.9,119.5c11,0,19.9,8.9,19.9,19.9s-8.9,19.9-19.9,19.9c-11,0-19.9-8.9-19.9-19.9S30.9,119.5,41.9,119.5
		L41.9,119.5z M235.9,190.5c-1.9,11.1-8.8,20.9-18.9,26.7c-9.4,5.4-20.6,7.1-32.5,8.8c-6.4,0.9-13,1.9-19.4,3.5
		c-17,4.2-33.5,12.4-49.5,20.3C83.6,265.7,56,279.4,30,261.4c-19.1-13.2-18.2-37.6-16-51c2.1-12.4,7.6-23.8,13-34.9
		c0.9-1.9,1.8-3.8,2.7-5.6c2.7,1.1,5.5,1.8,8.5,2.1c-5.5,18.1,3.1,37.7,21.2,47l2.5,1.3l2.6-0.9C78.8,214.2,92,206,103.7,195
		c7.5-7.1,14-15,19.4-23.4c1.6,0.2,3.2,0.4,4.9,0.4c18.1,0,32.7-14.7,32.7-32.7c0-9.7-4.3-18.4-11-24.4l20.6-41.6l20.8,42.4
		c-6.2,6-10.1,14.4-10.1,23.7c0,18.1,14.7,32.7,32.7,32.7c6.9,0,13.4-2.2,18.7-5.9C236,173.6,237.4,182.1,235.9,190.5L235.9,190.5z"/>
    </g>
</svg>
