<svg xmlns="http://www.w3.org/2000/svg" x="0px" y="0px" width="160px" height="160px" viewBox="0 0 160 160">
    <style type="text/css">
        .st0 {
            fill-rule: evenodd;
            clip-rule: evenodd;
            fill: url(#path7508_2_);
        }
        
        .st1 {
            fill-rule: evenodd;
            clip-rule: evenodd;
            fill: url(#path7510_2_);
        }
    </style>
    <defs></defs>
    <g>
        
        <linearGradient id="path7508_2_"
                        gradientUnits="userSpaceOnUse"
                        x1="-861.3397"
                        y1="-56.991"
                        x2="-748.4929"
                        y2="-169.8537"
                        gradientTransform="matrix(0.9988 0 0 -0.9987 882.5653 -31.808)">
            <stop offset="0" style="stop-color:#000000"/>
            <stop offset="1" style="stop-color:#ffffff"/>
        </linearGradient>
        <path id="path7508_1_" class="st0" d="M79.9,119.1c35.4,48.3,70-13.5,70-50.6c-0.1-43.9-44.5-68.4-70-68.4C38.9,0.1,0,33.9,0,80.1
		C0,131.5,44.6,160,79.8,160c-8-1.1-34.5-6.8-34.9-68c-0.2-41.3,13.5-57.9,34.8-50.6c0.5,0.2,23.5,9.3,23.5,39
		C103.3,109.9,79.9,119.1,79.9,119.1z"/>
        
        <linearGradient id="path7510_2_"
                        gradientUnits="userSpaceOnUse"
                        x1="-743.3837"
                        y1="-164.7444"
                        x2="-856.2303"
                        y2="-51.8818"
                        gradientTransform="matrix(0.9988 0 0 -0.9987 882.5653 -31.808)">
            <stop offset="0" style="stop-color:#000000"/>
            <stop offset="1" style="stop-color:#ffffff"/>
        </linearGradient>
        <path id="path7510_1_" class="st1" d="M79.8,41.4c-23.4-8.1-52,11.2-52,49.8c0,63,46.7,68.8,52.4,68.8c40.9,0,79.8-33.8,79.8-80
		c0-51.4-44.6-79.9-79.8-79.9c9.7-1.4,52.5,10.5,52.5,69c0,38.1-32,58.9-52.7,50c-0.5-0.2-23.5-9.3-23.5-39
		C56.5,50.7,79.8,41.4,79.8,41.4z"/>
    </g>
</svg>
