<svg xmlns="http://www.w3.org/2000/svg" x="0px" y="0px" width="307px" height="336px" viewBox="0 0 307 336">
    <style type="text/css">
        .st0 {
            fill: url(#SVGID_1_);
        }
        
        .st1 {
            fill: url(#SVGID_2_);
        }
        
        .st2 {
            fill: url(#SVGID_3_);
        }
    </style>
    <defs></defs>
    <g transform="matrix(.569 0 0 .569 199.451 -82.735)">
        
        <linearGradient id="SVGID_1_"
                        gradientUnits="userSpaceOnUse"
                        x1="-19011.4023"
                        y1="-11432.8682"
                        x2="-18806.4844"
                        y2="-11553.9512"
                        gradientTransform="matrix(0.1187 0 0 0.1187 1995.8134 2035.033)">
            <stop offset="0" style="stop-color:#909ca9"/>
            <stop offset="1" style="stop-color:#ededee"/>
        </linearGradient>
        <path class="st0" d="M-9.9,421.1l-118.3,38.6L-231,505.1l-28.8,7.6c-7.3,7-15,14-23.3,21.2c-9.1,7.9-17.6,15-24.1,20.2
		c-7.2,5.7-18,16.4-23.4,23.2c-8.1,10.2-14.6,21-17.3,29.3c-4.9,15-2.5,30.2,7,44.2c12.2,17.9,36.4,36.1,64.6,48.5
		c14.4,6.3,38.6,14.5,56.8,19c30.3,7.7,88.9,16,121.2,17.3c6.5,0.3,15.3,0.3,15.6,0c0.7-0.4,5.7-10,11.5-21.9
		c19.8-40.5,34.1-78.5,41.9-110.9c4.6-19.7,8.3-45.9,10.7-76.9c0.6-8.7,0.9-37.7,0.4-47.6c-0.8-16.1-2.2-29.1-4.5-41.9
		c-0.4-1.9-0.4-3.6-0.3-3.7c0.4-0.3,1.4-0.6,16-4.8L-9.9,421.1L-9.9,421.1L-9.9,421.1L-9.9,421.1z M-36.9,436.9
		c1.1,0,3.9,27.4,4.6,44.8c0.2,3.7,0.1,6.1-0.1,6.1c-0.7,0-15.1-8.5-25.4-14.9c-8.9-5.6-25.9-16.9-28.6-19c-0.9-0.6-0.8-0.7,6.5-3.2
		C-67.4,446.4-37.9,436.9-36.9,436.9z M-97.1,456.7c0.8,0,2.9,1.2,7.8,4.2c18.4,11.5,43.4,25.5,54.2,30.1c3.3,1.4,3.7,0.9-3.9,6.1
		c-16.3,11.1-36.6,22-61.4,33c-4.4,2-8,3.5-8.1,3.5c-0.2,0,0.4-2.2,1.1-4.9c6-22.3,9.4-44.8,9.6-62.8
		C-97.9,456.9-97.9,456.9-97.1,456.7C-97.3,456.7-97.2,456.7-97.1,456.7L-97.1,456.7z M-109.6,461.5c0.5,0.5,0.2,20.6-0.5,26
		c-1.6,13.1-4.1,25.2-8.2,38.9c-1,3.3-1.9,6.1-2.1,6.3c-0.4,0.4-12.6-11.5-16.6-16.2c-7-8-12.4-16.1-16.4-24c-2.1-4-5.3-11.9-5-12.2
		C-157,479.4-109.9,461.1-109.6,461.5L-109.6,461.5z M-168,484.4c0.1,0,0.2,0,0.3,0.1c0.2,0.2,0.8,1.6,1.3,3.2
		c2.9,7.8,9.3,19.2,14.8,26.5c6.1,8,14,16.6,20.6,22.3c2.1,1.8,4.1,3.5,4.4,3.8c0.5,0.5,0.7,0.4-13.9,6
		c-16.9,6.4-35.3,12.9-56.4,19.7c-5,1.6-10.1,3.3-15.1,4.9c-0.8,0.3-0.5-0.2,1.8-3.8c10.5-16.4,26.4-48.4,35.3-71.2
		c1.5-3.9,3-7.9,3.3-8.8c0.4-1.3,0.8-1.7,2-2.3C-168.9,484.6-168.3,484.4-168,484.4L-168,484.4z M-185.9,491.9
		c0.3,0.2-4.3,9.7-8.8,18.5c-8.7,16.9-18.1,33.5-30.8,53.7c-2.1,3.5-4.2,6.7-4.5,7.1c-0.4,0.6-0.6,0.4-2.1-2.3
		c-3-6-5.5-13.7-6.9-20.7c-1.3-7-1.1-19.1,0.4-26.6c1.2-5.5,1.1-5.5,3.8-6.8C-223.3,508.8-186.3,491.5-185.9,491.9L-185.9,491.9z
		 M-31.7,498.1v3.8c0,19.9-2.1,47.3-5.3,67.2c-0.5,3.5-1,6.3-1.1,6.4c0,0-2.6-0.7-5.6-1.6c-13.4-4.2-28-10.4-41.1-17.6
		c-8.7-4.7-21.3-12.5-20.9-12.9c0.1-0.1,3.8-2.1,8.2-4.4c17.5-9.1,34.3-18.9,48.9-28.7c5.5-3.7,13.7-9.6,15.5-11.2L-31.7,498.1
		L-31.7,498.1z M-253.4,524.6c0.4,0,0.3,0.7-0.3,3.9c-0.4,2.3-0.8,6.6-1,9.6c-0.7,13.1,1.4,22.7,7.9,35.9c1.8,3.7,3.2,6.7,3.1,6.8
		c-0.6,0.5-59.8,17.9-78.4,23c-5.5,1.5-10.4,2.9-10.7,2.9c-0.6,0.2-0.7,0.1-0.4-1.4c2.1-13.1,12.1-30.3,26-44.8
		c9.3-9.7,16.7-15.3,29.4-22.5c9.1-5.2,23.2-13,24.2-13.3C-253.6,524.6-253.5,524.6-253.4,524.6L-253.4,524.6z M-113.9,549.5
		c0.1-0.1,2.2,1.1,4.8,2.6c19.1,11.1,45.8,21.4,68.5,26.6l2.1,0.4l-2.9,1.6c-11.9,6.6-50.9,22.9-90.9,37.8
		c-5.8,2.1-11.5,4.3-12.6,4.7c-1.1,0.4-2.1,0.7-2.1,0.6c0-0.1,1.6-3.2,3.7-7.1c11.2-20.9,22.4-46.4,28.2-64.1
		C-114.5,551.1-114,549.6-113.9,549.5L-113.9,549.5z M-128.2,554.2c0.1,0.1-0.6,2-1.5,4.1c-7.8,18.9-18,39.4-31,62.5
		c-3.3,5.9-6.1,10.6-6.2,10.6c-0.1,0-2.8-1.6-6-3.6c-19-11.6-35.8-25.9-46.7-39.8l-1.6-2l8.1-2.2c29.1-8,53.9-16.5,78.5-27.1
		C-131.1,555.3-128.2,554.2-128.2,554.2z M-39.8,585C-39.8,585-39.8,585.1-39.8,585c0.1,2.1-4.5,20.5-8.2,33.8
		c-3.1,11.2-5.8,19.9-10.7,35.4c-2.1,6.8-4,12.4-4.1,12.4c-0.1,0-0.6-0.1-1.2-0.3c-26.5-4.8-50.3-11.5-72.7-20.5
		c-6.3-2.5-15.2-6.5-15.7-7c-0.2-0.2,5.2-2.7,12-5.6c40.7-17.8,82.9-38,97.3-46.7C-41.5,585.5-40.1,585-39.8,585L-39.8,585z
		 M-243.7,592c0.2,0.2-11.2,16.5-27.1,38.8c-5.5,7.8-12,16.9-14.4,20.3c-2.4,3.4-6.1,8.8-8.1,12l-3.8,5.8l-4-3.4
		c-4.7-3.9-13-12.3-16.6-17c-7.7-9.6-12.9-19.7-14.9-28.9c-1-4.3-1-6.4-0.1-6.7c1.3-0.4,25.2-6,47.6-11.2c12.4-2.9,26.8-6.3,32-7.5
		C-248,593-243.8,592-243.7,592L-243.7,592z M-232.3,596.4l2.9,3.2c12.9,14.4,26,25,41.9,34.3c2.9,1.6,5,3,4.8,3.1
		c-0.6,0.4-55.2,19.8-80.5,28.6c-14.2,5-25.9,9-26,9c-0.1,0-0.9-0.5-1.8-1.2l-1.6-1.2l2.6-3.8c8.4-12.2,19-25.5,41.9-53.2
		L-232.3,596.4L-232.3,596.4z M-161,647.4c0.1-0.1,4,1.3,8.8,3.1c11.6,4.4,20.8,7.1,33.2,10.3c15.2,3.8,37.2,7.6,50.1,8.7
		c2,0.2,3,0.4,2.7,0.6c-0.6,0.4-13.8,4.7-23.4,7.8c-15.4,4.8-62.3,18.7-100.6,29.7c-7.1,2.1-13.1,3.8-13.5,3.8
		c-0.9,0.2-3.8-0.6-3.8-1c0-0.2,2.1-2.9,4.7-6c12.9-15.4,25.7-32.5,36.3-48.8C-163.5,651.1-161,647.5-161,647.4L-161,647.4z
		 M-176.7,647.8c0.1,0.1-6.3,10.3-17.3,27.8c-4.7,7.4-10,15.8-11.9,18.8c-1.8,2.9-4.5,7.3-6,9.8l-2.6,4.6l-1.3-0.4
		c-3.2-0.9-25.8-8.9-31.8-11.3c-7.4-3-15.1-6.5-20.8-9.6c-7.1-3.8-16.1-9.6-15.4-9.7c0.2-0.1,12.4-3.4,27.2-7.4
		c39.2-10.6,60.9-16.8,75.1-21.3C-179,648.4-176.8,647.8-176.7,647.8L-176.7,647.8z M-65.4,673.9L-65.4,673.9
		c0.4,0.9-14,41.1-19.3,53.8c-1.2,2.9-1.6,3.6-2.2,3.5c-1.5-0.1-22.5-3-35.3-4.9c-22.3-3.4-59.6-9.9-69-12.1l-2.1-0.4l13.3-3
		c28.6-6.4,42.4-9.9,56.3-14.2c17.6-5.4,35-12.1,52.6-20.3C-68.4,675-66,674-65.4,673.9L-65.4,673.9z"/>
        
        <linearGradient id="SVGID_2_"
                        gradientUnits="userSpaceOnUse"
                        x1="-19003.3184"
                        y1="-15443.5273"
                        x2="-18838.4375"
                        y2="-15443.5273"
                        gradientTransform="matrix(0.1187 0 0 0.1187 1995.8134 2035.033)">
            <stop offset="0" style="stop-color:#939fab"/>
            <stop offset="1" style="stop-color:#dcdee1"/>
        </linearGradient>
        <path class="st1" d="M-131.8,145.4c-2-0.3-33.7,11.2-54.2,19.5c-27.6,11.3-49.1,22-62.3,31.3c-4.9,3.5-11.1,9.7-12.1,12.1
		c-0.4,0.9-0.5,2-0.5,3l12,11.4l28.5,9.1l67.8,12.2l77.6,13.3l0.8-6.7c-0.3,0-0.4-0.1-0.7-0.1l-10.2-1.6l-2.1-3.7
		c-10.5-18.6-22.2-41.7-29-57.2c-5.3-12.1-10.3-26-13.1-36C-130.7,145.9-130.8,145.5-131.8,145.4L-131.8,145.4L-131.8,145.4
		L-131.8,145.4z M-133.3,150L-133.3,150c0.2,0.1,0.5,2.6,0.9,5.5c1.5,12.5,4.3,24.6,8.7,37.6c3.3,9.8,3.3,9.3-0.5,8.1
		c-9.1-2.5-50-9.6-79.6-13.7c-4.7-0.6-8.8-1.3-8.8-1.3c-0.4-0.4,21.4-11.7,30.9-16.2C-169.4,164.4-135.8,150.4-133.3,150L-133.3,150
		z M-219.4,190l3.5,1.2c18.9,6.4,66.6,15.6,92.9,17.7c2.9,0.3,5.5,0.5,5.5,0.5c0.1,0.1-2.4,1.4-5.6,2.9
		c-12.7,6.3-26.6,14.1-36.3,20.1c-2.9,1.8-5.5,3.2-5.8,3.2c-0.4,0-2.2-0.4-4.2-0.6l-3.6-0.5l-8.9-8.8
		c-15.7-15.3-28.1-27.1-32.8-31.6L-219.4,190z M-223,192.8l12.6,15.7c6.9,8.7,13.9,17.2,15.4,19c1.5,1.9,2.8,3.4,2.7,3.5
		c-0.4,0.3-18.2-3.2-27.7-5.4c-9.7-2.2-13.8-3.3-19.8-5.2l-4.9-1.6v-1.3c0.1-6,7.7-14.9,20.6-24L-223,192.8L-223,192.8z
		 M-115.9,214.2c0.4,0,0.8,0.8,1.9,3.2c3,6.7,12.5,24.8,14.8,28.2c0.7,1.2,2,1.3-10.6-0.8c-30.3-4.9-40-6.5-40-6.7
		c0-0.1,0.9-0.7,2.1-1.3c9.4-5.2,18.9-11.8,27.3-18.9c2.1-1.7,3.9-3.3,4.3-3.6C-116.2,214.2-116,214.1-115.9,214.2L-115.9,214.2z"/>
        
        <radialGradient id="SVGID_3_"
                        cx="-7785.877"
                        cy="-11255.5137"
                        r="218.9127"
                        gradientTransform="matrix(-0.114 -1.712736e-02 3.463960e-02 -0.228 -584.8382 -2341.1584)"
                        gradientUnits="userSpaceOnUse">
            <stop offset="0" style="stop-color:#ee372d"/>
            <stop offset="1" style="stop-color:#a91f23"/>
        </radialGradient>
        <path class="st2" d="M-259.7,207c0,0-2,3.1-0.1,7.8c1.2,2.9,4.6,6.3,8.4,9.9c0,0,39.8,38.8,44.6,44.3c22,25.4,31.6,50.4,32.4,84.9
		c0.5,22.2-3.7,41.7-14.1,64.3c-18.6,40.6-57.8,85.4-118.3,135.1l8.9-3c5.7-4.3,13.5-8.8,31.7-18.9c42.1-23.1,89.5-44.2,147.6-66.1
		c83.7-31.5,221.2-68.3,299.5-80.3l8.1-1.3l-1.3-2c-7.1-11.1-12.1-18-18-25.3c-17.2-21.3-38-38.5-63.5-52.8
		c-35-19.6-80.4-34.9-137.7-46.2c-10.8-2.1-34.6-6.3-53.9-9.2c-40.9-6.3-67.4-10.7-96.5-15.7c-10.5-1.8-26.1-4.5-36.5-6.7
		c-5.4-1.2-15.6-3.6-23.7-6.3C-248.5,217.1-257.8,214.6-259.7,207L-259.7,207z M-236.7,229.3c0.1-0.1,1.5,0.4,3.4,1.1
		c3.4,1.2,7.8,2.5,13,3.9c3.9,1.1,7.9,2.1,11.8,3.1c5.4,1.3,9.8,2.6,9.9,2.6c0.6,0.6,9.7,29.5,12.7,40.6c1.2,4.2,2.1,7.8,2,7.8
		c-0.1,0.1-1.1-1.4-2.2-3.5c-10.5-18.4-27-37.1-46.1-52.1C-234.8,231-236.7,229.4-236.7,229.3L-236.7,229.3z M-192.7,241.5
		c0.4,0,2.4,0.3,4.8,0.8c15.2,3.4,42.5,8.6,59.9,11.5c3,0.4,5.3,1,5.3,1.2c0,0.2-1.1,0.8-2.4,1.5c-2.9,1.5-14.8,8.6-18.8,11.3
		c-9.9,6.6-18.9,13.8-25.3,20.2c-2.6,2.6-4.8,4.7-4.8,4.7s-0.5-1.5-1-3.4c-3.2-12.4-9.9-30.8-16-43.8
		C-192,243.5-192.8,241.6-192.7,241.5C-192.8,241.6-192.8,241.5-192.7,241.5L-192.7,241.5z M-115.3,256.2c0.5,0.2,1.4,3.2,3.2,9.9
		c3.3,13,4.8,27.4,4.3,40.9c-0.2,3.8-0.4,7.2-0.5,7.7l-0.3,0.9l-4.6-1.5c-9.6-3-25.1-7.6-38.4-11.4c-7.6-2.1-13.8-3.9-13.8-4.1
		c0-0.5,11.1-11.6,15.8-15.8C-140.6,274.9-116.1,256-115.3,256.2L-115.3,256.2z M-109.1,257.1c0.3-0.3,37,6.1,53.7,9.3
		c12.4,2.4,30.5,6.2,31.6,6.6c0.5,0.2-1.3,1.3-7.3,3.9c-23.6,10.6-41.1,20.2-58.5,31.8c-4.6,3-8.4,5.5-8.5,5.5
		c-0.1,0-0.2-2.6-0.2-5.7c0-17-3.4-34.1-9.7-48.6C-108.7,258.6-109.2,257.2-109.1,257.1z M-14.1,275.9c0.3,0.3-0.9,7.5-2,11.8
		c-3.2,13.3-11.9,33.1-22.5,51.7c-1.9,3.3-3.6,6-3.8,6.1c-0.2,0.1-2.6-1.3-5.4-2.9c-10.4-6.1-22.2-11.8-35-17.2
		c-3.6-1.5-6.7-2.8-6.8-2.9c-0.6-0.5,28.2-19.6,43.4-28.7C-34.1,286.5-14.5,275.6-14.1,275.9L-14.1,275.9z M-7.3,277
		c0.8,0,17.1,4.5,25.6,7c21,6.3,45.1,15.1,60.9,22.3l6.5,3l-4.6,1.1c-38.4,8.8-71.3,19-103.1,31.9c-2.6,1.1-4.9,2-5.1,2
		c-0.2,0,0.7-2.1,1.9-4.6c9.6-20.3,15.7-41.5,17.3-59.5C-7.8,278.3-7.6,277-7.3,277L-7.3,277z M-169.3,314.2
		c0.3-0.3,12.7,2.7,19.4,4.6c10.2,2.9,31.8,10.1,31.8,10.6c0,0.1-2.4,2.1-5.3,4.6c-11.7,9.7-23,20-36.5,33.1c-4,3.8-7.4,7-7.6,7
		c-0.2,0-0.3-0.5-0.2-1.3c2.1-15,1.6-34.3-1.3-53.9C-169.1,316.4-169.4,314.3-169.3,314.2z M91.8,314.4c0.2,0.2-5.7,9.5-9.5,14.7
		c-5.4,7.7-13.2,17.9-31,40.2c-9.4,11.8-19.9,25.1-23.4,29.6c-3.6,4.5-6.5,8.2-6.6,8.2c-0.1,0-1.2-1.6-2.5-3.6
		c-10-15-22-28.2-36.2-40c-2.7-2.2-5.6-4.6-6.6-5.4c-1-0.7-1.8-1.4-1.8-1.5c0-0.3,15.2-6.8,26.7-11.4c20.2-8.2,47.7-18.1,68.4-24.4
		C80.1,317.6,91.6,314.3,91.8,314.4L91.8,314.4z M98.7,316.2c0.4-0.1,2.5,1,5.1,2.5c21.7,12.4,43,28.4,59.8,44.9
		c4.7,4.6,16.4,16.8,16.3,16.9c0,0-4.1,0.4-8.9,0.7c-37.6,2.9-85.8,10.8-132.1,22c-3.1,0.7-5.9,1.3-6.1,1.3c-0.2,0,3.3-3.5,7.7-7.7
		c27.2-26.2,39.6-42.7,54.3-72.2C96.7,320.2,98.5,316.5,98.7,316.2C98.6,316.2,98.6,316.2,98.7,316.2L98.7,316.2z M-100.4,336.6
		c1.3,0.3,12.9,5.7,21.6,10.1c8,4,20.1,10.5,20.7,11c0.1,0.1-4.2,2.3-9.5,4.9c-16.8,8.4-31.2,16.4-46.2,25.5c-4.3,2.6-7.9,4.7-8,4.7
		c-0.4,0-0.3-0.4,2.1-4.7c8-14.7,14.5-32.2,18.1-49.3C-101,337.5-100.6,336.6-100.4,336.6L-100.4,336.6z M-112,338.7
		c0.3,0.3-2.8,11.3-4.6,17.3c-3.7,11.4-9.8,25.6-15.8,36.3c-1.4,2.5-3.6,6.2-4.7,8.2l-2.2,3.6l-5-4.8c-5.8-5.6-10.5-9.1-16.6-12.2
		c-2.4-1.3-4.3-2.3-4.3-2.5c0-0.7,15.3-14.6,27-24.6C-129.9,352.7-112.2,338.5-112,338.7L-112,338.7z M-40.9,368l4.4,2.9
		c10,6.5,21.8,15.2,30.8,22.8c5.1,4.2,14.9,13.1,16.9,15.2l1.1,1.2L5,412c-40.9,11.4-72.6,21.5-109.5,35c-4.1,1.5-7.6,2.8-7.9,2.8
		c-0.5,0-1,0.4,8.2-8c23.6-21.7,44.5-45.7,60.1-69L-40.9,368L-40.9,368z M-59.6,372.6c0.2,0.2-12.1,17.4-19.4,27.2
		c-8.8,11.6-24.3,31.1-35,43.8c-4.5,5.3-8.3,9.7-8.5,9.7c-0.3,0.1-0.4-1.3-0.4-3.3c0-10.8-2.8-22.3-7.6-32.2c-2.1-4.1-2.4-5.1-2-5.5
		c1.7-1.5,27.7-16.4,44.2-25.2C-77.2,381.2-59.9,372.4-59.6,372.6L-59.6,372.6z M-172.6,400.3c0.3,0,2.3,1.1,4.6,2.3
		c5.7,3.1,10.8,6.6,15.4,10.4c0.2,0.2-2.1,2.1-5.2,4.3c-8.5,6.1-21.4,15.8-28.9,21.8c-7.9,6.3-8.1,6.4-7.2,5.1
		c5.9-9,8.8-14.1,12-20.6c2.8-5.8,5.5-12.7,7.5-18.7C-173.7,402.3-172.8,400.3-172.6,400.3L-172.6,400.3z M-142.5,423.9
		c0.4-0.1,1,0.7,3.4,4.3c5.1,7.6,9,17.8,10,26l0.2,1.8l-12.2,4.7c-21.9,8.5-42.1,16.9-55.8,23.1c-3.8,1.8-10.5,5-14.9,7.2
		c-4.4,2.2-8,3.9-8,3.8c0-0.1,2.8-2.1,6.2-4.6c26.7-19.4,49.9-40.7,67.2-61.9c1.9-2.2,3.6-4.3,3.8-4.4L-142.5,423.9L-142.5,423.9z
		 M-156.3,427.3c0.4,0.4-9.8,11.9-16.8,18.9c-17.3,17.6-34.3,31.4-55.5,44.8c-2.7,1.7-5.1,3.2-5.4,3.4c-0.6,0.4,0.2-0.5,9.5-10.6
		c5.9-6.3,10.4-11.7,15.5-18.3c3.4-4.4,4-5,8.9-8.5C-187,447.5-156.7,427-156.3,427.3z"/>
    </g>
</svg>
