<svg xmlns="http://www.w3.org/2000/svg" width="346.48117" height="345.96476" viewBox="0 0 346.48117 345.96476">
    <path d="M346.48117,133.54007c-.95763,4.23792-1.71619,8.53256-2.905,12.70458-7.98889,28.03482-26.56432,44.9907-54.84731,50.97455-16.58184,3.50824-32.51022.53417-47.29876-7.83036-2.349-1.32863-3.7673-1.4059-5.85406.67144q-24.51519,24.40445-49.3641,48.47153c-2.27841,2.20182-2.24708,3.72113-1.018,6.3274,11.31282,23.98973,9.7936,47.38918-4.27209,69.72206-14.29019,22.68931-42.82242,35.03162-68.97839,30.42843-31.29843-5.50819-51.13837-24.052-57.97594-54.64407-8.71217-38.97922,16.9199-75.86548,54.72147-83.124,16.63683-3.19452,32.50256-.9546,47.41024,7.13758,2.29151,1.24389,3.5172,1.14937,5.37867-.70167q25.061-24.92032,50.36994-49.59014c1.89353-1.84449,1.96332-3.18092.891-5.42062-4.39138-9.172-6.973-18.82742-6.78937-29.07384.04388-2.44852-.39451-3.5628-3.21746-4.33572-11.72777-3.21107-23.3138-6.93854-34.95907-10.45253-10.142-3.06037-14.5207-11.12737-11.64679-21.52178,2.74528-9.92925,11.43711-14.86045,21.46563-12.02627,11.062,3.12626,22.15423,6.17647,33.08583,9.7153,3.57751,1.15813,5.4081.77981,7.5982-2.37586,13.92525-20.06466,33.69378-30.39718,57.6687-30.38,33.75543.02423,61.13,22.64229,68.62282,55.52263.67019,2.94082.18245,6.138,1.91391,8.83905ZM157.5453,275.86552c.383-18.40214-15.26771-34.44477-33.996-34.84725-19.66269-.42254-36.16808,14.63585-36.06557,33.68441C87.6,296.30589,100.669,309.80922,121.14635,310.7803,141.39156,311.7404,157.12353,296.12938,157.5453,275.86552ZM310.75645,128.26069a34.37651,34.37651,0,0,0-34.84337-34.73547,34.72456,34.72456,0,0,0-35.0498,35.26829c.0429,19.14607,15.91532,34.72362,35.29858,34.64278A34.73328,34.73328,0,0,0,310.75645,128.26069Z"
          style="fill:#1e1d32"/>
    <path d="M78.401,0C84.9407,1.98323,91.74612,2.91932,98.06269,5.83635c24.75594,11.43247,39.48132,30.79906,41.81123,57.64034,2.48209,28.59445-9.09617,51.50338-33.90724,66.9019-2.40369,1.49181-2.55965,2.71226-1.95045,5.124,2.90522,11.50116,5.61151,23.05253,8.39385,34.58475,2.50255,10.37257-2.5855,19.147-12.339,21.26675-11.57237,2.51505-19.40521-2.53776-21.84367-13.577-2.45349-11.10719-5.54684-22.07385-7.95547-33.18969-.79852-3.68517-2.7598-4.39583-5.92991-4.68937-24.93206-2.30882-43.92111-14.52158-55.74215-36.30072-22.1218-40.75727-.0413-92.455,48.76545-102.57808C59.06017.66774,61.03852,1.71172,62.45568,0Zm26.86446,70.12076A35.548,35.548,0,0,0,70.08928,34.94708c-18.88954-.06-35.063,16.17215-35.11676,35.2443-.05384,19.08983,16.086,35.125,35.253,35.0244A35.218,35.218,0,0,0,105.26544,70.12076Z"
          style="fill:#e95766"/>
</svg>
