<svg xmlns="http://www.w3.org/2000/svg" x="0px" y="0px" width="256px" height="256px" viewBox="0 0 256 256">
    <style type="text/css">
        .st0 {
            fill: #2179bf;
        }
        
        .st1 {
            fill: #ffffff;
        }
    </style>
    <defs></defs>
    <g>
        <polygon class="st0" points="0,128 0,256 128,256 256,256 256,128 256,0 128,0 0,0 	"/>
        <path class="st1" d="M56.6,128.8l-0.1,10.5h16.7h16.7v47.3V234h11.8h11.8v-47.3v-47.3h16.7h16.7v-10.3c0-5.7-0.1-10.4-0.3-10.6
		c-0.1-0.2-20.4-0.2-45-0.2l-44.7,0.1L56.6,128.8z"/>
        <path class="st1" d="M206.6,118.1c6.5,1.6,11.5,4.5,16,9.2c2.4,2.5,5.9,7.1,6.1,8.2c0.1,0.3-11.1,7.8-17.8,12
		c-0.2,0.2-1.2-0.9-2.3-2.5c-3.3-4.8-6.7-6.9-12-7.2c-7.8-0.5-12.8,3.5-12.7,10.3c0,2,0.3,3.2,1.1,4.8c1.7,3.5,4.9,5.6,14.8,10
		c18.3,7.9,26.2,13.1,31,20.5c5.4,8.2,6.7,21.4,3,31.2c-4.1,10.6-14.1,17.9-28.3,20.3c-4.4,0.8-14.8,0.7-19.5-0.2
		c-10.3-1.8-20-6.9-26-13.6c-2.4-2.6-6.9-9.4-6.7-9.9c0.1-0.2,1.2-0.8,2.4-1.5c1.1-0.7,5.4-3.1,9.5-5.5l7.4-4.3l1.5,2.3
		c2.2,3.3,6.9,7.8,9.7,9.3c8.2,4.3,19.4,3.7,24.9-1.3c2.4-2.2,3.3-4.4,3.3-7.7c0-3-0.4-4.3-1.9-6.5c-2-2.8-6.1-5.2-17.6-10.2
		c-13.2-5.7-18.9-9.2-24.1-14.8c-3-3.3-5.9-8.5-7-12.8c-1-3.6-1.2-12.7-0.4-16.3c2.7-12.8,12.4-21.7,26.3-24.3
		C191.7,116.7,202.1,117,206.6,118.1z"/>
    </g>
</svg>
