<svg xmlns="http://www.w3.org/2000/svg" width="255.3864" height="263.2985" viewBox="0 0 255.3864 263.2985"><g id="Layer_2" data-name="Layer 2"><g id="Layer_1-2" data-name="Layer 1"><path d="M254.7106,157.7212a12.957,12.957,0,0,0-10.7562-8.6638,24.6266,24.6266,0,0,0-8.5828.4754,77.23,77.23,0,0,1-13.2245,1.7382A255.0969,255.0969,0,0,0,249.15,87.0422c8.9594-34.6883,4.1717-50.4911-1.4231-57.64C232.92,10.4834,211.3171.3191,185.2542.0075A110.7305,110.7305,0,0,0,152.78,4.5564a121.034,121.034,0,0,0-18.9913-1.7376c-12.5357-.2-23.6129,2.5328-33.0778,8.1494A151.0149,151.0149,0,0,0,77.3487,5.1044c-22.8426-3.75-41.2521-.8277-54.7178,8.6851C6.3249,25.3078-1.2344,45.32.1638,73.27c.4434,8.8743,5.4079,35.8737,13.2239,61.48C17.88,149.4672,22.67,161.69,27.625,171.0793c7.0267,13.315,14.5453,21.1564,22.9862,23.9718,4.7315,1.5768,13.3273,2.68,22.3689-4.8486a19.5526,19.5526,0,0,0,4.7038,4.0469,31.2819,31.2819,0,0,0,8.8743,3.74c11.3414,2.8355,21.9645,2.126,31.0274-1.8476.0556,1.6117.0988,3.1518.1354,4.4815.06,2.1574.1194,4.2722.1987,6.25.5368,13.3747,1.4467,23.7737,4.1427,31.0493.1478.4009.347,1.01.5575,1.6567,1.3444,4.1184,3.594,11.0121,9.3153,16.4117,5.9259,5.5924,13.0927,7.3082,19.6564,7.3076a44.119,44.119,0,0,0,9.1877-1.0223c9.8208-2.1041,20.9736-5.3109,29.0415-16.7984,7.6274-10.86,11.3355-27.217,12.0066-52.9908q.13-1.0926.2447-2.0876c.052-.4476.1053-.9052.1591-1.3616l1.7973.1578.4629.0314c10.0023.4558,22.2324-1.6655,29.7433-5.1543,5.9353-2.7545,24.9538-12.7947,20.4759-26.3515"/><path d="M237.6082,160.3581c-29.74,6.1345-31.7842-3.9346-31.7842-3.9346,31.4-46.5932,44.5269-105.7363,33.199-120.2112C208.12-3.2726,154.6246,15.4012,153.7319,15.886l-.2874.0514a106.0552,106.0552,0,0,0-19.8414-2.0669c-13.4569-.22-23.6644,3.5279-31.41,9.4017,0,0-95.43-39.3135-90.9917,49.444C12.1455,91.5987,38.2652,215.59,69.42,178.1386c11.387-13.6946,22.389-25.2737,22.389-25.2737a28.8812,28.8812,0,0,0,18.8648,4.8167l.5327-.4523a20.7934,20.7934,0,0,0,.2134,5.3323c-8.0258,8.9671-5.6674,10.5415-21.7115,13.8441-16.2344,3.3457-6.6974,9.3023-.4706,10.859,7.5488,1.8878,25.0129,4.5619,36.8132-11.9569l-.4707,1.8848c3.1448,2.5186,5.353,16.3834,4.9829,28.9517s-.6173,21.1977,1.8606,27.9377,4.9473,21.9048,26.0387,17.3855c17.6237-3.7767,26.7564-13.5639,28.0269-29.8893.9016-11.6064,2.942-9.8906,3.0708-20.2672l1.6366-4.9125c1.8871-15.733.3-20.8087,11.1575-18.4479l2.6387.2317c7.9915.3636,18.4509-1.2853,24.59-4.1386,13.2186-6.1345,21.0582-16.3769,8.0246-13.6856h.0012" style="fill:#336791"/><path d="M107.779,81.1607c-2.6794-.3731-5.107-.0278-6.335.9016a2.3184,2.3184,0,0,0-.9619,1.5466,4.5177,4.5177,0,0,0,1.0955,2.9568,8.2831,8.2831,0,0,0,5.2584,3.28,6.1309,6.1309,0,0,0,.8413.0579c3.2458,0,6.196-2.5269,6.4562-4.3922.3251-2.3359-3.0661-3.8932-6.3545-4.3508" style="fill:#fff"/><path d="M196.5631,81.2346h-.0006c-.2554-1.831-3.5142-2.3531-6.6063-1.9233-3.0874.43-6.082,1.824-5.8319,3.6591.2011,1.4272,2.777,3.8637,5.8277,3.8631a5.628,5.628,0,0,0,.7793-.0538,7.5055,7.5055,0,0,0,4.24-2.3206,4.67,4.67,0,0,0,1.5922-3.2245" style="fill:#fff"/><path d="M247.5047,159.661c-1.1339-3.429-4.7836-4.5329-10.8477-3.28-18.0052,3.7159-24.4531,1.1417-26.5708-.4174a247.5546,247.5546,0,0,0,31.7191-71.1372c2.9426-11.39,4.5678-21.9675,4.7-30.5888.1466-9.4643-1.4645-16.4177-4.789-20.6656C228.3142,16.4465,208.6447,7.2606,184.8344,7.0082c-16.3686-.1839-30.1985,4.0055-32.88,5.1832a81.97,81.97,0,0,0-18.5018-2.3761c-12.2886-.1986-22.91,2.7433-31.7044,8.74A141.5851,141.5851,0,0,0,75.9841,11.8C55.1116,8.4389,38.526,10.9853,26.69,19.3707,12.5665,29.3766,6.0465,47.2623,7.31,72.53c.4251,8.5018,5.2684,34.6534,12.9129,59.6988,10.0621,32.9637,20.9991,51.6251,32.5079,55.4634a14.5519,14.5519,0,0,0,4.6127.7638c4.1983,0,9.3449-1.8925,14.7-8.33,8.895-10.7012,17.2-19.6683,20.2613-22.9265a32.634,32.634,0,0,0,14.5772,3.92c.0089.133.0225.2661.0343.3985-1.02,1.21-1.8565,2.27-2.5695,3.1748-3.5219,4.4709-4.255,5.4015-15.5923,7.7362-3.2246.6651-11.7908,2.43-11.9156,8.4344-.1365,6.56,10.1242,9.3148,11.2936,9.6068a48.3731,48.3731,0,0,0,11.7417,1.523,34.1746,34.1746,0,0,0,23.5165-8.7808c-.1974,23.3858.7781,46.43,3.5858,53.4513,2.2993,5.7473,7.9177,19.7948,25.6645,19.7936a41.1852,41.1852,0,0,0,8.623-.9785c18.5206-3.9712,26.5631-12.1567,29.6747-30.2032,1.6649-9.6447,4.5222-32.6764,5.8655-45.03a36.3256,36.3256,0,0,0,10.4345,1.2889c8.2322,0,17.7308-1.7489,23.688-4.514,6.6915-3.1075,18.7678-10.7343,16.5779-17.36ZM203.3988,76.18a74.9883,74.9883,0,0,1-1.0955,10.4144A96.314,96.314,0,0,0,200.99,98.82a92.5857,92.5857,0,0,0,.9684,13.8245c1.108,9.22,2.2449,18.7117-2.1568,28.0779a36.518,36.518,0,0,1-1.95-4.0085c-.5469-1.3261-1.7347-3.4563-3.3789-6.4048C188.0731,118.8335,173.088,91.96,180.7591,80.994c2.2845-3.2648,8.0832-6.62,22.64-4.8138ZM185.7549,14.3938c21.3338.4712,38.2091,8.4521,50.1577,23.72,9.164,11.7109-.927,64.998-30.14,110.9686-.2885-.3666-.5824-.7367-.8863-1.1163q-.1818-.2279-.37-.4623c7.5488-12.4671,6.0725-24.8018,4.7588-35.7383a85.8087,85.8087,0,0,1-.92-12.7084,90.195,90.195,0,0,1,1.2316-11.34A71.5237,71.5237,0,0,0,210.74,73.6793a5.8243,5.8243,0,0,0,.1224-1.9776c-.4754-5.0455-6.2351-20.1436-17.9756-33.8109a80.9706,80.9706,0,0,0-28.5739-21.4816,96.3438,96.3438,0,0,1,21.4425-2.0154ZM66.3767,175.4136c-5.9,7.0935-9.9745,5.7343-11.3142,5.2879-8.7306-2.9123-18.86-21.3639-27.7911-50.6241C19.5435,104.7594,15.0272,79.3007,14.67,72.1617,13.5414,49.584,19.0144,33.8486,30.9376,25.3929c19.404-13.7608,51.3064-5.5244,64.1253-1.3468-.1844.1815-.376.3518-.5587.5362C73.4691,45.8268,73.9681,82.1232,74.02,84.3415c-.0018.8561.07,2.0681.1685,3.7353a150.2487,150.2487,0,0,1-.7639,30.334A38.3585,38.3585,0,0,0,83.5347,150.52q1.2575,1.3118,2.6173,2.4684c-3.6047,3.86-11.4378,12.3956-19.7753,22.4257ZM88.8557,145.42a31.0325,31.0325,0,0,1-8.1329-25.989,157.01,157.01,0,0,0,.8218-31.7907c-.0526-.89-.0993-1.67-.1271-2.2851C84.4907,82.6311,98.7315,75,108.8869,77.3272c4.6352,1.0618,7.4583,4.2172,8.6325,9.6458,6.0766,28.1027.8047,39.816-3.4315,49.2283-.8732,1.9392-1.698,3.772-2.4027,5.6686l-.5457,1.4657a96.0333,96.0333,0,0,0-3.4652,10.4244,26.2263,26.2263,0,0,1-18.8186-8.34Zm1.0648,37.9a16.2975,16.2975,0,0,1-4.9167-2.1143,23.9855,23.9855,0,0,1,5.2377-1.559c13.3374-2.7463,15.3967-4.6837,19.8947-10.3949,1.0317-1.309,2.2-2.7936,3.8193-4.6015l.0018-.0024c2.4116-2.7,3.5142-2.2419,5.5143-1.4124a7.8042,7.8042,0,0,1,3.84,4.9385,5.4964,5.4964,0,0,1-.47,4.62c-9.3963,13.1559-23.0879,12.9868-32.9211,10.5262Zm69.7987,64.9524c-16.316,3.4959-22.0929-4.8291-25.9-14.346-2.4571-6.1446-3.6644-33.8512-2.8077-64.4476a3.666,3.666,0,0,0-.159-1.17,15.4524,15.4524,0,0,0-.4558-2.1621,14.94,14.94,0,0,0-8.104-9.72,11.4322,11.4322,0,0,0-7.4606-.9034,90.3657,90.3657,0,0,1,3.2121-9.6132l.5493-1.4757c.6184-1.6632,1.3935-3.386,2.2141-5.2093,4.433-9.8486,10.5043-23.3374,3.9151-53.8109-2.4684-11.4135-10.71-16.987-23.2044-15.6928a53.5412,53.5412,0,0,0-17.761,5.53c-.7348.3725-1.4071.7319-2.0349,1.0825.9536-11.5005,4.5583-32.9921,18.0406-46.59,8.4882-8.5609,19.7936-12.7888,33.5679-12.5612,27.14.4446,44.544,14.3727,54.366,25.979a82.54,82.54,0,0,1,14.8758,25.51c-13.7548-1.3983-23.11,1.3172-27.8526,8.0968-10.3168,14.7475,5.6444,43.3722,13.3156,57.1288,1.4065,2.5215,2.6209,4.7,3.0028,5.6261a51.0841,51.0841,0,0,0,8.0933,13.0465c.7236.904,1.426,1.7808,1.96,2.5464-4.1658,1.2013-11.6489,3.976-10.9672,17.8467-.55,6.96-4.4614,39.5464-6.4479,51.0593-2.6227,15.21-8.22,20.8755-23.9576,24.25Zm68.1043-77.9369c-4.26,1.9776-11.3888,3.461-18.1612,3.7791-7.48.3506-11.2877-.8378-12.1834-1.5685-.421-8.6437,2.7971-9.5471,6.2019-10.5031.5351-.1508,1.0571-.2968,1.5609-.473.3133.2548.6562.5079,1.0316.7556,6.0122,3.9683,16.7358,4.3963,31.8741,1.2717.0556-.0118.1112-.0225.1662-.0337a40.7269,40.7269,0,0,1-10.49,6.7719Z" style="fill:#fff"/></g></g></svg>