<svg xmlns="http://www.w3.org/2000/svg" width="172.9134" height="147.3952" viewBox="0 0 172.9134 147.3952"><g id="Layer_2" data-name="Layer 2"><g id="Layer_1-2" data-name="Layer 1"><path d="M122.2568,72.0611a9.8337,9.8337,0,0,0-5.9928-1.7053,10.1968,10.1968,0,0,0-4.6419,1.01,11.6563,11.6563,0,0,0-3.5388,2.7063,16.2846,16.2846,0,0,0-2.5823,3.9487,26.06,26.06,0,0,0-1.71,4.6817,34.0015,34.0015,0,0,0-.9257,4.9052,42.422,42.422,0,0,0-.2969,4.704v25.8776H96.0179v-52.9h6.5509V76.6009h.2148a23.7209,23.7209,0,0,1,2.3541-5.1865,16.0224,16.0224,0,0,1,3.2821-3.8777,13.7488,13.7488,0,0,1,4.0527-2.4029,13.0648,13.0648,0,0,1,4.6154-.8238,17.9517,17.9517,0,0,1,2.8744.2081,10.9039,10.9039,0,0,1,2.2945.6157Z" style="fill:#68217a"/><path d="M134.685,92.927a29.0243,29.0243,0,0,0,1.2933,8.73,18.3465,18.3465,0,0,0,3.559,6.5618,15.2688,15.2688,0,0,0,5.6582,4.108,18.9764,18.9764,0,0,0,7.512,1.4153q8.9523,0,16.8952-6.2431v6.5066q-7.5907,5.428-18.3924,5.4236a24.2869,24.2869,0,0,1-9.66-1.86,19.8757,19.8757,0,0,1-7.3791-5.397,24.5042,24.5042,0,0,1-4.7017-8.7034,38.4334,38.4334,0,0,1-1.65-11.7816,32.5454,32.5454,0,0,1,1.7938-11.0023,27.2329,27.2329,0,0,1,5.0226-8.7521,22.9769,22.9769,0,0,1,7.5872-5.7912,22.1176,22.1176,0,0,1,9.6026-2.0884,21.6914,21.6914,0,0,1,9.0533,1.785,17.6316,17.6316,0,0,1,6.5774,5.0847A22.9857,22.9857,0,0,1,171.516,78.98a37.5885,37.5885,0,0,1,1.3974,10.6432V92.927Zm31.41-5.7844q-.1527-8.2585-3.9352-12.8117-3.7572-4.5476-10.4818-4.5464a16.1641,16.1641,0,0,0-6.23,1.187,14.9751,14.9751,0,0,0-5.0294,3.437,18.4726,18.4726,0,0,0-3.5876,5.4789,27.03,27.03,0,0,0-1.9908,7.2552Z" style="fill:#68217a"/><path d="M21.005,126.5537a49.564,49.564,0,0,1-14.4558-36.24A48.375,48.375,0,0,1,21.005,54.2679a49.9779,49.9779,0,0,1,70.7056.1252l4.2033-4.365a56.3516,56.3516,0,0,0-79.5131-.1805A58.01,58.01,0,0,0,.0029,90.3138a56.1877,56.1877,0,0,0,95.911,40.6248l-4.2033-4.3165A49.9778,49.9778,0,0,1,21.005,126.5537Z" style="fill:#68217a"/><path d="M55.52,110.5331a19.3362,19.3362,0,0,1-7.5274-1.4039,16.016,16.016,0,0,1-5.6825-3.9555,17.2955,17.2955,0,0,1-3.6032-6.1254,23.7756,23.7756,0,0,1-1.26-7.9172,25.0138,25.0138,0,0,1,1.3289-8.4333,17.8137,17.8137,0,0,1,3.7692-6.3093,16.1643,16.1643,0,0,1,5.9084-3.9555,20.9319,20.9319,0,0,1,7.729-1.3574,19.25,19.25,0,0,1,7.3614,1.34A14.9654,14.9654,0,0,1,69.0974,76.3a17.4347,17.4347,0,0,1,3.5055,6.1832A26.3552,26.3552,0,0,1,73.81,90.7613,24.2761,24.2761,0,0,1,72.5456,98.8a18.0526,18.0526,0,0,1-3.63,6.2452A15.9754,15.9754,0,0,1,63.18,109.087,19.3566,19.3566,0,0,1,55.52,110.5331Z" style="fill:#40ccf4"/><path d="M4.5075,17.0254V.9209h7.85v1.37H6.0011V8.1982h5.8848V9.5459H6.0011v6.1206h6.7158v1.3589Z" style="fill:#68217a"/><path d="M23.5993,17.0254v-6.626q0-3.8971-2.83-3.897A3.2658,3.2658,0,0,0,19.3766,6.8a3.3425,3.3425,0,0,0-1.1064.8257,3.8665,3.8665,0,0,0-.7295,1.2524,4.5312,4.5312,0,0,0-.2642,1.5664v6.5811H15.839v-11.5h1.4375v1.999h.0449a4.155,4.155,0,0,1,3.8521-2.2685A3.4786,3.4786,0,0,1,24.0485,6.48a5.5162,5.5162,0,0,1,.9883,3.5376v7.0078Z" style="fill:#68217a"/><path d="M33.4372,16.8906a3.5649,3.5649,0,0,1-1.6172.3706q-2.7855,0-2.7852-3.2119V6.7832H27.0133V5.5254h2.0215V2.6279l1.4375-.4716V5.5254h2.9649V6.7832H30.4723v7.0415a2.884,2.884,0,0,0,.3819,1.6846,1.5019,1.5019,0,0,0,1.2915.5166,2.3235,2.3235,0,0,0,1.2915-.4043Z" style="fill:#68217a"/><path d="M36.5143,2.6167a1.0008,1.0008,0,0,1-.7187-.292.9852.9852,0,0,1-.3033-.7412.9522.9522,0,0,1,.3033-.7241,1.01,1.01,0,0,1,.7187-.2866,1.1311,1.1311,0,0,1,.4043.0727.9729.9729,0,0,1,.3311.208,1.0157,1.0157,0,0,1,.2246.32.9694.9694,0,0,1,.0844.41,1.0544,1.0544,0,0,1-.0786.4043.9622.9622,0,0,1-.2246.3315,1.0914,1.0914,0,0,1-.331.2188A1.0458,1.0458,0,0,1,36.5143,2.6167Zm-.7075,14.4087v-11.5h1.4375v11.5Z" style="fill:#68217a"/><path d="M45.8918,16.8906a3.5649,3.5649,0,0,1-1.6172.3706q-2.7855,0-2.7852-3.2119V6.7832H39.4679V5.5254h2.0215V2.6279l1.4375-.4716V5.5254h2.9649V6.7832H42.9269v7.0415a2.8849,2.8849,0,0,0,.3818,1.6846,1.5021,1.5021,0,0,0,1.2916.5166,2.3235,2.3235,0,0,0,1.2915-.4043Z" style="fill:#68217a"/><path d="M51.5968,19.1143a6.86,6.86,0,0,1-1.55,2.499,3.0062,3.0062,0,0,1-2.1225.8139,3.2606,3.2606,0,0,1-1.0445-.1459V20.9336a2.9373,2.9373,0,0,0,1.0108.18,1.84,1.84,0,0,0,1.23-.4434,3.544,3.544,0,0,0,.9043-1.3423l.9995-2.3584L46.5993,5.5254H48.194l3.29,9.1079q.0674.1794.1289.41c.0415.1538.0806.3051.1182.455h.0562c.0375-.1274.0727-.2563.1069-.3876a3.9494,3.9494,0,0,1,.14-.4322l3.4927-9.1528h1.5161Z" style="fill:#68217a"/><path d="M67.0612,2.291V8.3555H72.946V9.7144H67.0612v7.311H65.5675V.9209h7.85v1.37Z" style="fill:#68217a"/><path d="M81.9977,6.9966A2.1472,2.1472,0,0,0,80.695,6.626a2.2379,2.2379,0,0,0-1.0108.2187,2.5642,2.5642,0,0,0-.769.59,3.5256,3.5256,0,0,0-.5615.8593A5.952,5.952,0,0,0,77.9826,9.31,7.5292,7.5292,0,0,0,77.78,10.377a9.033,9.033,0,0,0-.0615,1.0219v5.6265H76.2926v-11.5h1.4263V7.9849h.0449a5.1224,5.1224,0,0,1,.5108-1.1285,3.5129,3.5129,0,0,1,.7133-.8427,2.9869,2.9869,0,0,1,.8814-.522,2.8347,2.8347,0,0,1,1.0054-.18,3.9186,3.9186,0,0,1,.6235.0449,2.3582,2.3582,0,0,1,.4995.1348Z" style="fill:#68217a"/><path d="M90.7126,17.0254v-2.044h-.045a4.222,4.222,0,0,1-1.5327,1.7071,4.0619,4.0619,0,0,1-2.1958.6064,4.4869,4.4869,0,0,1-1.4995-.2358,3.2114,3.2114,0,0,1-1.1338-.6685,2.9279,2.9279,0,0,1-.7187-1.0385,3.4315,3.4315,0,0,1-.253-1.3365A3.2843,3.2843,0,0,1,84.3,11.5283a5.1865,5.1865,0,0,1,2.92-1.2075l3.4927-.5054q0-3.3127-2.5718-3.313a5.6214,5.6214,0,0,0-3.7285,1.4712V6.4014a4.781,4.781,0,0,1,.8144-.4659,7.3689,7.3689,0,0,1,.96-.3593,7.8941,7.8941,0,0,1,1.039-.2364,6.72,6.72,0,0,1,1.0386-.0839A3.73,3.73,0,0,1,91.1671,6.334a4.6248,4.6248,0,0,1,.983,3.2119v7.48Zm-2.9649-5.5816a8.9867,8.9867,0,0,0-1.3252.2808,2.72,2.72,0,0,0-.91.4551,1.6939,1.6939,0,0,0-.5278.707,2.8122,2.8122,0,0,0-.1684,1.0391,2.2037,2.2037,0,0,0,.163.8535,1.9153,1.9153,0,0,0,.4717.68,2.15,2.15,0,0,0,.752.4433,2.9938,2.9938,0,0,0,1.0053.1573,3.3161,3.3161,0,0,0,2.51-1.1006,3.7516,3.7516,0,0,0,.73-1.2354,4.4863,4.4863,0,0,0,.2642-1.561V11.0283Z" style="fill:#68217a"/><path d="M110.0627,17.0254V10.2646a8.2383,8.2383,0,0,0-.1573-1.746,3.048,3.048,0,0,0-.4883-1.1626,1.897,1.897,0,0,0-.8427-.6514,3.3061,3.3061,0,0,0-1.2183-.2022,2.5081,2.5081,0,0,0-1.19.2974,3.1564,3.1564,0,0,0-.9829.82,3.9868,3.9868,0,0,0-.6621,1.23,4.6939,4.6939,0,0,0-.2417,1.5274v6.6484h-1.4375V10.1187q0-3.6161-2.774-3.6163a2.5345,2.5345,0,0,0-1.19.2867,2.9636,2.9636,0,0,0-.96.8027,3.8494,3.8494,0,0,0-.6406,1.2412,5.2655,5.2655,0,0,0-.23,1.6v6.5923H95.609v-11.5h1.4375V7.39h.045a3.8532,3.8532,0,0,1,3.5376-2.1337,3.4873,3.4873,0,0,1,1.1455.1855,3.3083,3.3083,0,0,1,.9658.5166,3.3518,3.3518,0,0,1,.7353.7915A3.5563,3.5563,0,0,1,103.942,7.76,4.6229,4.6229,0,0,1,105.52,5.896a3.9026,3.9026,0,0,1,2.1958-.64q3.7843,0,3.7847,4.6718v7.0977Z" style="fill:#68217a"/><path d="M115.6442,11.5337a6.4354,6.4354,0,0,0,.2808,1.8979,4.0168,4.0168,0,0,0,.7749,1.4263,3.3374,3.3374,0,0,0,1.23.8931,4.1386,4.1386,0,0,0,1.6342.3086,5.848,5.848,0,0,0,3.6724-1.3589v1.415a6.697,6.697,0,0,1-3.9981,1.1792,5.2785,5.2785,0,0,1-2.1-.4043,4.3523,4.3523,0,0,1-1.6059-1.1738,5.3642,5.3642,0,0,1-1.022-1.8921,8.3887,8.3887,0,0,1-.3594-2.56,7.0608,7.0608,0,0,1,.3931-2.3921,5.8935,5.8935,0,0,1,1.0894-1.9033,5.015,5.015,0,0,1,1.6508-1.2579,4.7861,4.7861,0,0,1,2.0889-.455,4.7009,4.7009,0,0,1,1.9653.3877A3.8568,3.8568,0,0,1,122.77,6.75a5.0109,5.0109,0,0,1,.8813,1.752,8.2043,8.2043,0,0,1,.3032,2.3134v.7188Zm6.8281-1.2578a4.3809,4.3809,0,0,0-.8535-2.7852,2.8,2.8,0,0,0-2.28-.9883,3.4943,3.4943,0,0,0-1.353.2583,3.2133,3.2133,0,0,0-1.0952.7471,4.0235,4.0235,0,0,0-.7808,1.19,5.99,5.99,0,0,0-.4321,1.5777Z" style="fill:#68217a"/><path d="M137.1618,17.0254h-1.4375L133.2873,8.58a6.2811,6.2811,0,0,1-.18-1.022h-.0449q-.0228.1685-.0728.4155a5.3248,5.3248,0,0,1-.1631.584l-2.6841,8.4678h-1.4038l-3.4814-11.5h1.5386l2.5268,8.917a5.0991,5.0991,0,0,1,.1572,1h.09c.0151-.1348.039-.2881.0732-.46a5.2355,5.2355,0,0,1,.14-.55l2.7851-8.9058h1.19l2.4932,8.9282a7.0222,7.0222,0,0,1,.1685.9995h.09a1.6288,1.6288,0,0,1,.0449-.4433c.0376-.169.086-.354.146-.5562l2.5269-8.9282h1.4487Z" style="fill:#68217a"/><path d="M147.505,17.2949a5.8818,5.8818,0,0,1-2.2968-.4267,4.9153,4.9153,0,0,1-1.7349-1.2071,5.323,5.323,0,0,1-1.1006-1.87,7.2641,7.2641,0,0,1-.3818-2.4145,7.6284,7.6284,0,0,1,.4043-2.5718,5.4106,5.4106,0,0,1,1.1509-1.9258,4.9129,4.9129,0,0,1,1.8027-1.2075,6.3919,6.3919,0,0,1,2.3584-.4155,5.87,5.87,0,0,1,2.2461.41,4.5805,4.5805,0,0,1,1.6958,1.1846,5.2779,5.2779,0,0,1,1.0669,1.8867,7.976,7.976,0,0,1,.3706,2.5269,7.3947,7.3947,0,0,1-.3872,2.4536,5.5517,5.5517,0,0,1-1.1065,1.9038,4.8928,4.8928,0,0,1-1.7519,1.2353A5.9334,5.9334,0,0,1,147.505,17.2949Zm.1123-10.7925a4.3075,4.3075,0,0,0-1.707.3257,3.5793,3.5793,0,0,0-1.3086.9492,4.2934,4.2934,0,0,0-.8364,1.5274,6.65,6.65,0,0,0-.292,2.0493,6.0488,6.0488,0,0,0,.292,1.9429,4.3784,4.3784,0,0,0,.8257,1.4824,3.567,3.567,0,0,0,1.2968.9492,4.6364,4.6364,0,0,0,3.4141.0108,3.3685,3.3685,0,0,0,1.2578-.9317,4.1087,4.1087,0,0,0,.78-1.5,7.079,7.079,0,0,0,.2642-2.0215,5.3864,5.3864,0,0,0-1.0332-3.5542A3.6414,3.6414,0,0,0,147.6173,6.5024Z" style="fill:#68217a"/><path d="M161.6891,6.9966a2.1472,2.1472,0,0,0-1.3027-.3706,2.2379,2.2379,0,0,0-1.0108.2187,2.5642,2.5642,0,0,0-.769.59,3.5256,3.5256,0,0,0-.5615.8593A5.952,5.952,0,0,0,157.674,9.31a7.5292,7.5292,0,0,0-.2022,1.0669,9.033,9.033,0,0,0-.0615,1.0219v5.6265H155.984v-11.5H157.41V7.9849h.0449a5.1224,5.1224,0,0,1,.5108-1.1285,3.5109,3.5109,0,0,1,.7134-.8427,2.9851,2.9851,0,0,1,.8813-.522,2.8347,2.8347,0,0,1,1.0054-.18,3.9186,3.9186,0,0,1,.6235.0449,2.3582,2.3582,0,0,1,.4995.1348Z" style="fill:#68217a"/><path d="M170.55,17.0254l-5.29-5.604h-.0449v5.604H163.778V0h1.4375V10.8823h.0449l5.02-5.3569h1.8755l-5.3906,5.5591,5.8174,5.9409Z" style="fill:#68217a"/></g></g></svg>