<svg xmlns="http://www.w3.org/2000/svg" width="508.6" height="494.1" viewBox="0 0 508.6 494.1"><g id="Layer_2" data-name="Layer 2"><g id="Layer_1-2" data-name="Layer 1"><g id="logo"><path id="Fill-12" d="M374.4,451.2a84.7,84.7,0,1,1,84.7-84.7,84.7365,84.7365,0,0,1-84.7,84.7M205.6,257.1a52.9,52.9,0,1,1,52.9-52.9,52.92,52.92,0,0,1-52.9,52.9M378.2,92H236.9A130.423,130.423,0,0,0,106.5,222.4V363.7A130.423,130.423,0,0,0,236.9,494.1H378.2A130.423,130.423,0,0,0,508.6,363.7V222.4A130.423,130.423,0,0,0,378.2,92" style="fill:#0f4a7f;fill-rule:evenodd"/><path id="Fill-14" d="M84.7,42.3A42.35,42.35,0,1,1,42.3,0,42.3149,42.3149,0,0,1,84.7,42.3" style="fill:#0f4a7f;fill-rule:evenodd"/></g></g></g></svg>