<svg xmlns="http://www.w3.org/2000/svg" width="172.9134" height="154.5916" viewBox="0 0 172.9134 154.5916"><g id="Layer_2" data-name="Layer 2"><g id="Layer_1-2" data-name="Layer 1"><path d="M42.8847,24.7554l-2.6826-7.1992H29.76L27.145,24.7554H24.6323L33.9028.4077h2.2754l9.2192,24.3477Zm-7.42-20.086q-.1186-.3229-.2461-.747a7.3,7.3,0,0,1-.2124-.9683h-.0679a9.4172,9.4172,0,0,1-.229.9683q-.1274.424-.2466.747L30.5239,15.502h8.914Z" style="fill:#0c2c65"/><path d="M49.0488,21.19a8.577,8.577,0,0,0,1.35.8233,10.8847,10.8847,0,0,0,3.0644.9848,9.2827,9.2827,0,0,0,1.4942.1275,6.6872,6.6872,0,0,0,4.143-1.07,3.6611,3.6611,0,0,0,1.3755-3.0733,4.1144,4.1144,0,0,0-.3227-1.6894,4.1763,4.1763,0,0,0-1.002-1.35,10.3716,10.3716,0,0,0-1.7148-1.2481q-1.0358-.62-2.4449-1.4009-1.5622-.8488-2.6743-1.6045a9.7868,9.7868,0,0,1-1.8164-1.5449,5.2077,5.2077,0,0,1-1.0361-1.7065A6.1263,6.1263,0,0,1,49.1337,6.35a5.5121,5.5121,0,0,1,.6284-2.6484A6.1739,6.1739,0,0,1,51.46,1.7065,7.8516,7.8516,0,0,1,53.9643.4414,10.3807,10.3807,0,0,1,57.0292,0a12.66,12.66,0,0,1,4.8052.7979v2.496a9.9817,9.9817,0,0,0-5.06-1.2392,7.6857,7.6857,0,0,0-2.0459.2632,5.3207,5.3207,0,0,0-1.6807.7724A3.7377,3.7377,0,0,0,51.91,4.355a3.5816,3.5816,0,0,0-.416,1.7573,4.3268,4.3268,0,0,0,.28,1.6387,3.8939,3.8939,0,0,0,.9,1.2988,8.5275,8.5275,0,0,0,1.63,1.2139q1.01.6027,2.47,1.3838a29.3907,29.3907,0,0,1,2.666,1.5879,10.36,10.36,0,0,1,1.893,1.6127,5.9479,5.9479,0,0,1,1.1289,1.7828,5.6446,5.6446,0,0,1,.3736,2.0971,6.32,6.32,0,0,1-.5943,2.81,5.4745,5.4745,0,0,1-1.664,2.0117,7.5755,7.5755,0,0,1-2.5469,1.2056,12.0567,12.0567,0,0,1-4.6182.3139q-.7983-.093-1.6128-.2714a15.1,15.1,0,0,1-1.5537-.4244,5.5643,5.5643,0,0,1-1.1972-.5351Z" style="fill:#0c2c65"/><path d="M70.9023,15.2813v9.4741H68.644V.4077h6.2822a11.0834,11.0834,0,0,1,3.3955.4751,6.9107,6.9107,0,0,1,2.4961,1.3755,5.7736,5.7736,0,0,1,1.5449,2.207,7.9487,7.9487,0,0,1,.5264,2.9883,8.1094,8.1094,0,0,1-.5942,3.1328,7.07,7.07,0,0,1-1.7061,2.479,7.8622,7.8622,0,0,1-2.7085,1.63,10.4449,10.4449,0,0,1-3.6162.586Zm0-12.8023V13.21h3.2256a6.9355,6.9355,0,0,0,4.7715-1.46,5.2531,5.2531,0,0,0,1.63-4.126q0-5.1445-6.0107-5.1445Z" style="fill:#0c2c65"/><path d="M85.8954,25.0947a1.623,1.623,0,0,1-1.63-1.63,1.6055,1.6055,0,0,1,.4668-1.1713,1.5642,1.5642,0,0,1,1.163-.4756,1.6,1.6,0,0,1,.6368.1274,1.7217,1.7217,0,0,1,.518.34,1.637,1.637,0,0,1,.4922,1.18,1.5157,1.5157,0,0,1-.1357.6368,1.7624,1.7624,0,0,1-.3565.518,1.6479,1.6479,0,0,1-.518.3482A1.5992,1.5992,0,0,1,85.8954,25.0947Z" style="fill:#0c2c65"/><path d="M110.1039,24.7554,96.5888,5.2124q-.2549-.3727-.501-.7637a4.9006,4.9006,0,0,1-.3989-.7641h-.085q.0338.3054.0591.8486t.0259,1.3584V24.7554H93.4306V.4077h2.4956l13.2949,19.3047q.3054.4586.5518.8574t.45.7388h.085q-.0682-.56-.1021-1.2564t-.0337-1.5449V.4077h2.2754V24.7554Z" style="fill:#0c2c65"/><path d="M119.32,24.7554V.4077h11.8681V2.479h-9.61V11.41h8.8969v2.0376h-8.8969v9.2534h10.1533v2.0547Z" style="fill:#0c2c65"/><path d="M144.0112,2.479V24.7554h-2.2583V2.479h-7.0122V.4077h16.3V2.479Z" style="fill:#0c2c65"/><path d="M122.2568,79.2576a9.8331,9.8331,0,0,0-5.9928-1.7054,10.1981,10.1981,0,0,0-4.6419,1.01,11.6566,11.6566,0,0,0-3.5388,2.7064,16.2839,16.2839,0,0,0-2.5823,3.9486,26.0582,26.0582,0,0,0-1.71,4.6818,33.9976,33.9976,0,0,0-.9257,4.9051,42.4235,42.4235,0,0,0-.2969,4.704v25.8776H96.0179v-52.9h6.5509V83.7974h.2148a23.72,23.72,0,0,1,2.3541-5.1866,16.02,16.02,0,0,1,3.2821-3.8776,13.7492,13.7492,0,0,1,4.0527-2.403,13.067,13.067,0,0,1,4.6154-.8238,17.9633,17.9633,0,0,1,2.8744.2081,10.9039,10.9039,0,0,1,2.2945.6157Z" style="fill:#0c2c65"/><path d="M134.685,100.1234a29.0238,29.0238,0,0,0,1.2933,8.73,18.3465,18.3465,0,0,0,3.559,6.5618,15.2677,15.2677,0,0,0,5.6582,4.108,18.9764,18.9764,0,0,0,7.512,1.4153q8.9523,0,16.8952-6.2431v6.5066q-7.5907,5.4281-18.3924,5.4236a24.2886,24.2886,0,0,1-9.66-1.86,19.877,19.877,0,0,1-7.3791-5.3971,24.5033,24.5033,0,0,1-4.7017-8.7034,38.4334,38.4334,0,0,1-1.65-11.7816,32.5458,32.5458,0,0,1,1.7938-11.0023,27.2329,27.2329,0,0,1,5.0226-8.7521,22.9783,22.9783,0,0,1,7.5872-5.7912,22.1176,22.1176,0,0,1,9.6026-2.0884,21.6914,21.6914,0,0,1,9.0533,1.785,17.6326,17.6326,0,0,1,6.5774,5.0847,22.9857,22.9857,0,0,1,4.0593,8.0569,37.5888,37.5888,0,0,1,1.3974,10.6433v3.3041Zm31.41-5.7844q-.1527-8.2584-3.9352-12.8117-3.7572-4.5476-10.4818-4.5463a16.1641,16.1641,0,0,0-6.23,1.1869,14.9766,14.9766,0,0,0-5.0294,3.437,18.4726,18.4726,0,0,0-3.5876,5.4789A27.03,27.03,0,0,0,134.84,94.339Z" style="fill:#0c2c65"/><path d="M21.005,133.75A49.5638,49.5638,0,0,1,6.5492,97.51,48.375,48.375,0,0,1,21.005,61.4643a49.978,49.978,0,0,1,70.7056.1252l4.2033-4.365a56.3516,56.3516,0,0,0-79.5131-.1805A58.01,58.01,0,0,0,.0029,97.51a56.1877,56.1877,0,0,0,95.911,40.6248l-4.2033-4.3164A49.9779,49.9779,0,0,1,21.005,133.75Z" style="fill:#0c2c65"/><path d="M55.52,117.73a19.3362,19.3362,0,0,1-7.5274-1.4039A16.0158,16.0158,0,0,1,42.31,112.37a17.2968,17.2968,0,0,1-3.6032-6.1255,23.7756,23.7756,0,0,1-1.26-7.9172,25.0142,25.0142,0,0,1,1.3289-8.4333,17.8146,17.8146,0,0,1,3.7692-6.3093A16.1628,16.1628,0,0,1,48.4527,79.63a20.9319,20.9319,0,0,1,7.729-1.3575,19.25,19.25,0,0,1,7.3614,1.34,14.9654,14.9654,0,0,1,5.5543,3.8844A17.4343,17.4343,0,0,1,72.6029,89.68,26.3545,26.3545,0,0,1,73.81,97.9577a24.2761,24.2761,0,0,1-1.2645,8.0389,18.0526,18.0526,0,0,1-3.63,6.2452,15.9742,15.9742,0,0,1-5.7358,4.0416A19.3566,19.3566,0,0,1,55.52,117.73Z" style="fill:#40ccf4"/></g></g></svg>