<svg xmlns="http://www.w3.org/2000/svg" width="100.3323" height="122.9561" viewBox="0 0 100.3323 122.9561"><g id="Layer_2" data-name="Layer 2"><g id="Layer_1-2" data-name="Layer 1"><path d="M90.5919,54.0762a9.75,9.75,0,0,0-7,2.13l-7.89-14.6a29,29,0,0,1,13.89-4.22c.36,7,0,9.6,1,16.66Z" style="fill:#383838;fill-rule:evenodd"/><path d="M88.6019,34.9962a33.27,33.27,0,0,0-13.85,4.08l-6-32.94c-.6-2.61-.64-4.53,2.28-6a4,4,0,0,1,2.89.32,4.38,4.38,0,0,1,1.82,2.39Z" style="fill:#383838;fill-rule:evenodd"/><path d="M54.4519,122.5462c16.11-2.33,30.4-12.87,38.67-26.18a8.2294,8.2294,0,0,1-2-.56,7.86,7.86,0,0,1-4.25-4.54c-.6-1.4-2.7-3-4.75-4.61-5.82-4.5-11.46-8.88-10.23-19a18.34,18.34,0,0,1,2-6.26l-7.61-14a7.9287,7.9287,0,0,1-.86-2.52c-.09-.18-.18-.35-.25-.53a38.5639,38.5639,0,0,1-7.17,3.22c-13.8,4.34-23.2-1.87-12.36-16.12,7.41-9.74-8.94-18.56-23.43-8.72-11.8,8.01-22.03,25.64-22.21,45.03C-.2481,95.8162,24.3419,126.8962,54.4519,122.5462Z" style="fill:#f7e5d9;fill-rule:evenodd"/><path d="M13.4619,83.3062a8.9,8.9,0,1,0,1.44-12.51A8.9,8.9,0,0,0,13.4619,83.3062Z" style="fill:#33a867;fill-rule:evenodd"/><path d="M33.5819,105.7862a10.28,10.28,0,1,0,1.66-14.45A10.28,10.28,0,0,0,33.5819,105.7862Z" style="fill:#fdba21;fill-rule:evenodd"/><path d="M61.6719,97.3662a8.45,8.45,0,0,0,13.23-10.5C68.0019,78.1862,54.7719,88.6662,61.6719,97.3662Z" style="fill:#fb434c;fill-rule:evenodd"/><path d="M96.6319,86.5062c-3.12-8.28-15.78-10.09-14.57-20.07a10.32,10.32,0,0,1,4.25-7,6.75,6.75,0,0,1,3.12-1.14,7.2466,7.2466,0,0,1,1.54,0c6.55.84,9.4,7.69,9.36,13.63,0,5.48-2.12,11-3.7,14.6Z" style="fill:#383838;fill-rule:evenodd"/><path d="M15.8719,55.4662a7.52,7.52,0,1,0,1.2164-10.5651l-.0064.0051a7.51,7.51,0,0,0-1.2174,10.5507Z" style="fill:#47bcff;fill-rule:evenodd"/></g></g></svg>