<svg xmlns="http://www.w3.org/2000/svg" width="255.11" height="289.322" viewBox="0 0 255.11 289.322"><g id="Layer_2" data-name="Layer 2"><g id="Layer_1-2" data-name="Layer 1"><path d="M127.399,289.322,23.217,260.4,0,0H255.11L231.869,260.36l-104.47,28.962Z" style="fill:#264de4"/><path d="M211.972,243.781l19.86-222.49H127.555V267.184l84.417-23.403Z" style="fill:#2965f1"/><path d="M53.224,117.87l2.862,31.937h71.469V117.87ZM47.472,53.229l2.903,31.937h77.18V53.229Zm80.083,147.585-.14.037-35.568-9.604-2.274-25.471H57.513l4.474,50.146,65.421,18.16.147-.04Z" style="fill:#ebebeb"/><path d="M201.682,117.87l5.765-64.641H127.445V85.166h45.002l-2.906,32.704H127.445v31.937h39.327l-3.708,41.42-35.62,9.614v33.226l65.473-18.145.48-5.396,7.506-84.08.779-8.576Z" style="fill:#fff"/></g></g></svg>