<svg xmlns="http://www.w3.org/2000/svg" width="255.7" height="287.2294" viewBox="0 0 255.7 287.2294"><g id="Layer_2" data-name="Layer 2"><g id="Layer_1-2" data-name="Layer 1"><path d="M255.6,84.4647a25.5438,25.5438,0,0,0-3.1-12.8,24.8649,24.8649,0,0,0-9.2-9q-51-29.4-102.1-58.8c-9.2-5.3-18.1-5.1-27.2.3-13.5,8-81.3,46.8-101.6,58.5-8.3,4.8-12.4,12.2-12.4,21.7v118.4a25.4038,25.4038,0,0,0,3,12.5,25.4183,25.4183,0,0,0,9.4,9.3c20.2,11.7,88,50.5,101.6,58.5,9.1,5.4,18,5.6,27.2.3q51-29.4,102.1-58.8a24.02,24.02,0,0,0,9.4-9.3,25.4038,25.4038,0,0,0,3-12.5c-.1,0-.1-78.9-.1-118.3" style="fill:#967ab7"/><path d="M128.2,143.1647,3,215.2647a25.4183,25.4183,0,0,0,9.4,9.3c20.2,11.7,88,50.5,101.6,58.5,9.1,5.4,18,5.6,27.2.3q51-29.4,102.1-58.8a24.02,24.02,0,0,0,9.4-9.3l-124.5-72.1" style="fill:#2d2164"/><path d="M255.6,84.4647a25.5438,25.5438,0,0,0-3.1-12.8l-124.3,71.6,124.4,72.1a25.4038,25.4038,0,0,0,3-12.5v-118.4" style="fill:#3f2d87"/><path d="M201.9,116.2647v13.5h13.5v-13.5h6.7v13.5h13.5v6.7H222.1v13.5h13.5v6.7H222.1v13.5h-6.7v-13.5H201.9v13.5h-6.7v-13.5H181.7v-6.7h13.5v-13.5H181.7v-6.7h13.5v-13.5Zm13.5,20.2H201.9v13.5h13.5Z" style="fill:#fff"/><path d="M128.5,48.5647a95.1373,95.1373,0,0,1,82.3,47.5l-.2-.3-41.3,23.8a47.2483,47.2483,0,0,0-40.2-23.3h-.5a47.33,47.33,0,0,0-47.3,47.3,47.18,47.18,0,0,0,47.3,47.3,47.1856,47.1856,0,0,0,41.2-24.1l-.2.3,41.3,23.9a94.8842,94.8842,0,0,1-81.3,47.5h-1.1a94.95,94.95,0,1,1,0-189.9Z" style="fill:#fff"/></g></g></svg>