<svg xmlns="http://www.w3.org/2000/svg" width="256" height="256" viewBox="0 0 256 256"><g id="Layer_2" data-name="Layer 2"><g id="Layer_1-2" data-name="Layer 1"><path d="M0,0H256V256H0Z" style="fill:#f7df1e"/><path d="M67.3117,213.9323l19.591-11.8561c3.7794,6.7011,7.2175,12.3709,15.4644,12.3709,7.9051,0,12.889-3.0923,12.889-15.12V117.5288h24.0575V199.667c0,24.9173-14.6058,36.2589-35.9152,36.2589-19.2451,0-30.4165-9.9673-36.0871-21.9956"/><path d="M152.381,211.3544l19.5884-11.3416c5.1566,8.4212,11.8585,14.607,23.715,14.607,9.9681,0,16.3246-4.9838,16.3246-11.8576,0-8.2485-6.53-11.17-17.5278-15.98l-6.0128-2.58c-17.3572-7.3879-28.8711-16.6673-28.8711-36.2578,0-18.0435,13.7472-31.7915,35.2284-31.7915,15.2942,0,26.2921,5.3276,34.196,19.2471l-18.7311,12.0284c-4.1244-7.3887-8.591-10.3095-15.4644-10.3095-7.0457,0-11.5139,4.4678-11.5139,10.3095,0,7.2175,4.4682,10.14,14.7777,14.6078l6.0139,2.5775c20.45,8.7645,31.9635,17.6993,31.9635,37.8043,0,21.6535-17.0123,33.51-39.867,33.51-22.3394,0-36.7746-10.6537-43.819-24.5736"/></g></g></svg>