<?xml version="1.0" standalone="no"?>
<!DOCTYPE svg PUBLIC "-//W3C//DTD SVG 20010904//EN"
 "http://www.w3.org/TR/2001/REC-SVG-20010904/DTD/svg10.dtd">
<svg version="1.0" xmlns="http://www.w3.org/2000/svg"
 width="960.000000pt" height="960.000000pt" viewBox="0 0 960.000000 960.000000"
 preserveAspectRatio="xMidYMid meet">
<metadata>
Created by potrace 1.14, written by Peter Selinger 2001-2017
</metadata>
<g transform="translate(0.000000,960.000000) scale(0.100000,-0.100000)"
fill="#000000" stroke="none">
<path d="M4584 9345 c-17 -17 -72 -139 -80 -180 -1 -5 -34 -91 -74 -190 -39
-99 -73 -188 -75 -198 -2 -9 -7 -23 -12 -30 -4 -6 -8 -16 -10 -22 -4 -21 -77
-210 -83 -215 -3 -3 -7 -14 -8 -25 -2 -11 -10 -33 -17 -50 -14 -31 -104 -262
-109 -280 -2 -5 -7 -19 -11 -30 -24 -60 -69 -181 -70 -185 0 -3 -3 -9 -6 -15
-4 -5 -12 -28 -19 -50 -7 -22 -17 -46 -23 -52 -5 -7 -7 -13 -4 -13 4 0 -3 -21
-13 -46 -11 -25 -45 -111 -76 -192 -31 -81 -78 -205 -106 -277 -28 -71 -51
-135 -52 -142 -1 -7 -5 -16 -9 -19 -4 -4 -7 -13 -7 -20 0 -10 51 -12 225 -11
l225 1 28 26 c17 15 40 56 56 100 16 41 39 103 53 137 13 34 26 67 27 75 2 7
6 20 9 28 3 8 22 60 42 115 20 55 41 111 47 125 6 14 12 30 14 35 1 6 21 60
44 120 22 61 42 115 43 120 1 6 8 24 14 40 14 37 21 58 20 65 0 3 10 25 23 50
13 25 23 47 23 50 -1 8 17 61 53 155 4 11 8 25 10 30 10 34 114 307 122 320 7
14 11 12 21 -13 7 -16 14 -36 15 -43 2 -8 9 -27 16 -44 7 -16 14 -36 16 -43 1
-8 9 -28 17 -45 9 -18 19 -44 22 -60 4 -15 11 -30 16 -33 5 -3 9 -13 9 -22 0
-9 13 -51 30 -92 55 -139 118 -310 117 -320 0 -3 6 -16 13 -30 8 -14 15 -29
16 -35 4 -23 47 -131 55 -140 5 -5 9 -17 9 -27 0 -9 11 -42 25 -73 13 -30 25
-59 26 -63 3 -15 64 -182 79 -217 12 -28 22 -60 19 -60 -1 0 4 -11 11 -25 8
-14 15 -34 17 -44 2 -11 7 -24 11 -30 5 -6 17 -37 27 -68 l19 -58 238 0 c131
0 238 4 238 8 0 5 -8 33 -17 63 -9 30 -17 59 -18 64 -1 6 -5 19 -10 30 -4 11
-21 54 -37 95 -16 41 -33 84 -38 95 -5 11 -19 47 -31 80 -12 33 -25 64 -30 69
-5 6 -9 15 -9 22 0 6 -8 29 -17 50 -9 22 -17 41 -18 44 0 3 -15 41 -32 85 -46
115 -56 139 -58 145 -1 3 -5 12 -8 20 -9 22 -51 134 -52 140 -1 3 -9 22 -18
44 -9 21 -17 42 -17 46 0 4 -13 38 -28 76 -16 38 -38 96 -50 129 -11 33 -42
114 -67 180 -26 66 -48 125 -49 130 -2 6 -8 24 -15 40 -27 69 -54 140 -122
325 -40 107 -81 207 -91 223 -35 49 -49 52 -253 52 -178 0 -191 -1 -211 -20z"/>
<path d="M2931 7190 l1 -240 31 -23 c18 -12 34 -22 37 -22 3 -1 38 -18 77 -38
40 -21 74 -36 75 -35 2 1 22 -11 46 -25 23 -15 42 -24 42 -20 0 5 4 4 8 -2 4
-5 54 -33 112 -61 58 -28 217 -106 353 -173 137 -66 252 -121 258 -121 5 0 9
-4 9 -10 0 -5 5 -10 11 -10 6 0 79 -33 162 -74 379 -184 593 -288 607 -296 91
-50 1072 -535 1155 -571 l110 -48 3 222 c2 152 -1 231 -9 250 -9 21 -35 40
-103 75 -50 25 -93 46 -96 47 -6 1 -317 155 -995 490 -1036 513 -1452 718
-1540 760 -264 126 -348 165 -351 165 -3 0 -4 -108 -3 -240z"/>
<path d="M7065 7103 c-11 -3 -38 -11 -60 -20 -22 -8 -42 -14 -45 -14 -3 1 -34
-8 -70 -20 -36 -12 -72 -22 -80 -24 -8 -2 -28 -9 -45 -16 -16 -7 -32 -13 -35
-14 -69 -18 -83 -50 -116 -254 -3 -18 -8 -43 -10 -55 -3 -11 -7 -37 -9 -56 -3
-19 -7 -46 -10 -60 -8 -43 -15 -84 -30 -195 -2 -16 -7 -50 -10 -75 -3 -25 -7
-56 -10 -70 -2 -14 -7 -47 -10 -75 -7 -67 -16 -135 -21 -165 -6 -38 -17 -141
-18 -172 -1 -16 -3 -28 -6 -28 -3 0 -6 -12 -6 -27 -2 -41 -28 -234 -50 -368
-6 -31 -9 -59 -19 -135 -3 -25 -7 -52 -10 -60 -2 -8 -6 -37 -10 -65 -3 -27 -8
-61 -10 -75 -3 -14 -7 -41 -9 -60 -3 -19 -7 -51 -10 -70 -3 -19 -10 -69 -16
-110 -12 -75 -17 -105 -20 -105 -1 0 -3 -18 -4 -40 -2 -22 -6 -54 -10 -72 -4
-17 -9 -47 -12 -65 -3 -18 -7 -46 -10 -63 -2 -16 -7 -46 -9 -65 -3 -19 -8 -48
-12 -65 -3 -16 -7 -41 -8 -55 -1 -14 -5 -45 -9 -70 -3 -25 -9 -63 -12 -85 -3
-22 -7 -51 -9 -65 -2 -14 -6 -45 -10 -70 -3 -25 -8 -56 -10 -70 -2 -14 -7 -50
-11 -80 -8 -68 -10 -82 -19 -150 -5 -30 -9 -67 -9 -82 -1 -16 -3 -28 -6 -28
-3 0 -6 -9 -6 -20 0 -21 20 -20 84 6 17 7 32 11 32 8 0 -3 9 0 21 6 11 6 28
13 37 15 23 4 195 62 229 77 50 22 82 62 89 114 1 12 5 39 9 60 3 22 8 55 11
74 2 19 7 51 9 70 20 129 35 253 40 323 3 43 14 127 21 162 3 11 7 38 9 60 3
22 7 51 10 65 3 14 8 41 11 60 3 19 13 89 24 155 27 176 30 196 36 245 3 25 8
59 11 75 3 17 6 41 8 55 4 35 15 110 20 140 3 14 7 43 10 65 3 22 7 51 9 65 3
14 7 43 11 65 3 22 8 54 10 70 3 17 8 46 10 65 3 19 7 46 9 60 2 14 7 50 10
80 4 30 9 62 11 70 2 8 7 40 10 70 3 30 8 69 11 85 11 67 13 82 19 130 3 28 7
59 9 70 2 11 7 45 11 75 8 57 12 81 15 90 1 3 2 9 1 14 -1 4 5 49 14 100 9 50
18 107 20 126 2 19 6 44 8 55 3 11 8 40 11 65 3 25 8 54 10 65 2 11 7 43 11
70 4 28 9 59 11 70 1 11 6 40 9 65 4 25 8 49 9 53 2 12 -35 24 -59 20z"/>
<path d="M2424 6261 c-3 -3 -28 -6 -57 -8 -29 -1 -83 -4 -122 -7 -174 -13
-346 -22 -590 -31 -168 -7 -279 -11 -470 -20 -71 -4 -184 -8 -250 -10 -66 -2
-120 -4 -120 -5 0 -1 -230 -11 -322 -14 -29 0 -53 -3 -53 -6 0 -3 -39 -6 -88
-8 -48 -1 -105 -4 -127 -6 -22 -2 -57 -4 -77 -5 -31 -1 -39 -6 -52 -33 -9 -17
-16 -38 -16 -48 0 -9 -4 -20 -9 -25 -8 -9 -29 -67 -38 -102 -2 -7 -5 -21 -7
-30 -3 -10 -5 -18 -6 -18 -6 0 -14 -59 -15 -101 0 -67 18 -98 82 -141 29 -19
67 -48 84 -64 17 -16 35 -29 39 -29 5 0 10 -3 12 -8 2 -4 39 -36 83 -72 44
-36 82 -68 83 -72 2 -5 10 -8 18 -8 8 0 14 -4 14 -9 0 -5 26 -28 58 -52 31
-24 59 -46 62 -49 3 -3 30 -25 60 -50 30 -25 56 -48 58 -52 2 -5 8 -8 14 -8 6
0 16 -6 22 -14 6 -7 70 -60 141 -117 72 -57 132 -106 135 -109 3 -3 25 -21 50
-40 25 -19 47 -37 50 -40 3 -3 30 -25 60 -50 30 -25 57 -47 60 -50 3 -4 23
-19 45 -36 22 -16 46 -35 54 -42 8 -7 46 -39 85 -70 39 -31 78 -64 87 -74 9
-10 20 -18 25 -18 5 0 23 -13 39 -28 17 -15 64 -55 105 -87 76 -61 114 -92
134 -110 34 -30 87 -65 99 -65 26 0 45 35 76 140 17 58 44 143 60 189 l29 84
-21 33 c-12 19 -30 36 -39 40 -10 3 -18 9 -18 13 0 4 -21 23 -47 42 -51 36
-77 56 -98 77 -8 6 -16 12 -20 12 -4 0 -12 6 -20 13 -7 7 -50 42 -95 78 -45
35 -132 104 -194 152 -61 48 -124 98 -139 110 -16 12 -37 29 -46 37 -10 8 -33
26 -51 40 -67 51 -256 200 -294 232 -21 18 -44 35 -50 37 -6 2 -15 9 -21 16
-5 6 -52 44 -102 84 -51 40 -93 74 -93 75 0 2 64 3 143 3 128 -1 293 7 417 18
25 3 81 7 125 10 44 3 103 7 130 10 118 10 387 23 652 30 100 2 195 7 210 11
39 9 71 41 79 78 3 17 11 37 17 44 5 7 7 15 4 19 -4 3 -2 14 4 25 9 17 55 158
64 198 2 8 4 15 5 15 2 0 7 19 16 57 l6 28 -62 -3 c-34 -1 -64 -4 -66 -6z"/>
<path d="M7110 6063 c37 -109 72 -209 78 -223 11 -30 37 -53 61 -57 18 -3 277
-12 493 -17 75 -2 141 -7 147 -11 6 -3 11 -1 11 5 0 6 5 8 11 4 6 -3 70 -8
142 -10 131 -3 212 -6 527 -20 91 -4 198 -7 238 -7 39 1 72 -2 72 -6 -1 -13
-49 -60 -116 -112 -38 -30 -76 -59 -84 -66 -8 -7 -132 -105 -275 -218 -143
-113 -269 -214 -280 -223 -11 -9 -52 -42 -90 -72 -39 -30 -72 -57 -75 -60 -3
-3 -36 -30 -75 -60 -77 -61 -72 -56 -170 -135 -137 -110 -144 -118 -140 -170
2 -33 43 -164 55 -180 5 -5 9 -14 9 -20 2 -17 22 -77 43 -127 24 -57 44 -61
103 -21 35 24 144 109 200 155 11 9 52 42 90 73 39 32 88 72 110 90 22 18 67
54 100 80 65 53 203 164 222 180 6 6 27 22 45 36 18 15 85 69 149 120 64 52
132 106 150 121 19 14 45 36 59 48 14 12 41 34 60 49 19 14 41 32 48 39 8 6
53 42 100 79 48 37 92 72 98 78 6 5 26 21 44 35 18 14 58 45 89 70 31 25 98
78 149 118 l92 72 0 70 c0 38 -5 81 -11 97 -6 15 -12 35 -14 43 -5 19 -22 69
-48 137 -29 79 -71 99 -218 109 -41 2 -101 6 -134 9 -73 6 -246 13 -465 20
-91 3 -221 7 -290 10 -69 2 -201 6 -295 9 -93 3 -210 8 -260 10 -49 3 -148 8
-220 11 -71 4 -146 9 -165 11 -35 5 -65 7 -311 19 l-127 7 68 -199z"/>
<path d="M3720 6002 c-16 -5 -24 -14 -235 -237 -71 -76 -177 -186 -235 -245
-58 -59 -222 -228 -365 -375 -143 -147 -268 -275 -279 -284 -10 -9 -23 -21
-30 -27 -333 -338 -1013 -1030 -1067 -1088 -41 -44 -98 -105 -126 -135 -54
-57 -65 -80 -38 -82 24 -2 29 -4 43 -12 6 -5 12 -6 12 -3 0 2 71 -20 157 -50
87 -30 170 -57 185 -60 39 -7 86 19 138 77 89 100 343 363 818 847 89 91 162
166 162 166 0 2 499 509 823 837 310 313 497 510 505 529 2 6 -87 39 -123 46
-5 1 -30 8 -55 15 -25 7 -48 13 -52 13 -3 1 -10 4 -14 9 -4 4 -15 7 -24 7 -9
0 -45 11 -81 25 -73 29 -98 34 -119 27z"/>
<path d="M3175 4242 c-12 -9 -47 -53 -79 -97 -33 -44 -64 -83 -70 -87 -6 -4
-8 -8 -4 -8 7 0 -59 -98 -93 -138 -6 -7 -12 -32 -14 -55 -3 -37 13 -75 141
-327 79 -157 160 -313 179 -347 19 -35 31 -63 27 -63 -4 0 -2 -4 4 -8 6 -4 42
-68 80 -142 38 -74 71 -137 74 -140 3 -3 16 -25 29 -50 101 -193 124 -237 133
-247 6 -7 7 -13 3 -13 -5 0 -2 -8 7 -17 8 -10 29 -47 48 -83 18 -36 45 -87 60
-115 15 -27 53 -99 85 -160 32 -60 70 -132 85 -160 29 -52 83 -153 168 -315
84 -160 143 -272 182 -345 42 -80 135 -256 208 -394 62 -119 75 -127 119 -76
18 21 33 44 33 51 0 7 4 14 8 16 5 1 33 39 62 83 30 44 62 89 73 100 22 24 52
77 49 88 -1 4 3 7 8 7 7 0 6 8 -1 23 -7 12 -12 24 -11 27 4 11 -10 40 -19 40
-5 0 -9 7 -9 15 0 9 -11 33 -25 55 -14 22 -22 40 -19 40 4 0 1 8 -7 18 -8 9
-27 40 -41 67 -73 142 -178 341 -290 550 -27 50 -58 110 -70 135 -12 25 -25
47 -28 50 -3 3 -12 21 -20 40 -8 19 -16 37 -20 40 -3 3 -23 39 -44 80 -21 41
-55 107 -76 145 -21 39 -66 124 -100 190 -76 146 -162 309 -205 390 -18 33
-74 141 -125 240 -153 298 -202 389 -212 403 -6 6 -7 12 -3 12 5 0 2 8 -6 18
-8 9 -39 67 -69 127 -30 61 -57 112 -60 115 -3 3 -31 58 -63 123 -32 64 -59
117 -60 117 -1 -1 -11 -8 -22 -18z"/>
<path d="M7660 3389 c-41 -10 -95 -21 -120 -25 -25 -3 -56 -7 -70 -9 -14 -2
-47 -6 -75 -9 -27 -3 -59 -8 -70 -10 -11 -2 -47 -7 -80 -11 -32 -4 -68 -9 -80
-11 -11 -2 -45 -8 -75 -14 -30 -6 -65 -12 -76 -14 -12 -2 -37 -7 -55 -10 -19
-3 -47 -8 -64 -11 -110 -20 -194 -34 -220 -38 -16 -3 -58 -10 -93 -16 -34 -7
-66 -9 -71 -6 -6 3 -12 1 -15 -4 -3 -4 -29 -11 -57 -15 -29 -4 -120 -21 -203
-37 -83 -17 -164 -32 -181 -35 -16 -2 -41 -6 -55 -9 -14 -3 -38 -7 -55 -10
-16 -3 -50 -10 -75 -15 -25 -5 -61 -12 -80 -14 -19 -3 -44 -7 -55 -10 -11 -2
-42 -7 -70 -10 -27 -4 -76 -11 -108 -17 -33 -6 -73 -12 -90 -14 -18 -2 -45 -6
-62 -10 -52 -10 -189 -34 -226 -39 -20 -3 -42 -7 -50 -10 -8 -3 -32 -7 -54
-10 -22 -3 -52 -8 -66 -11 -14 -3 -41 -7 -60 -9 -19 -3 -34 -5 -34 -6 0 -2
-21 -6 -85 -16 -25 -4 -51 -8 -58 -10 -8 -1 -44 -8 -82 -14 -86 -15 -105 -18
-105 -20 0 -1 -16 -3 -34 -6 -45 -6 -81 -29 -81 -53 0 -16 31 -66 51 -81 3 -3
30 -41 60 -85 29 -44 56 -81 61 -83 4 -2 8 -9 8 -14 0 -15 69 -77 100 -90 42
-17 92 -16 147 4 29 11 58 18 65 17 12 -3 56 3 129 16 13 2 40 6 59 9 19 3 53
8 75 11 22 3 54 8 70 10 17 2 30 4 30 5 0 1 14 4 30 6 29 4 89 15 110 20 6 1
37 7 70 13 33 6 70 13 81 15 12 2 37 7 55 10 19 3 45 8 59 11 14 3 41 8 60 11
143 22 218 35 235 38 11 2 40 7 65 12 25 4 47 8 50 9 3 0 27 4 53 9 27 4 59 9
70 12 86 16 125 24 142 27 11 3 40 8 65 13 25 4 47 8 50 9 3 1 25 5 50 9 25 5
54 10 65 13 22 5 40 7 105 17 25 4 70 11 100 16 30 5 73 11 95 14 22 2 52 7
66 11 14 3 41 8 60 10 19 2 34 4 34 5 0 1 11 3 25 6 14 2 63 11 110 20 47 8
94 17 105 18 44 8 93 17 145 28 30 6 69 12 85 13 17 2 37 5 45 8 14 5 49 12
120 21 83 12 180 29 240 41 14 3 45 8 70 10 25 2 45 4 45 5 0 1 8 3 18 5 11 2
21 6 24 9 3 3 -21 41 -53 86 -33 44 -81 113 -109 153 -27 39 -68 91 -91 114
-37 40 -44 43 -90 42 -27 -1 -83 -10 -124 -20z"/>
<path d="M2287 2812 c-10 -17 -79 -269 -92 -335 -2 -9 -7 -22 -10 -28 -4 -5
-8 -20 -10 -32 -1 -12 -15 -67 -30 -122 -15 -55 -29 -109 -31 -120 -2 -11 -17
-69 -34 -130 -16 -60 -32 -119 -34 -130 -2 -11 -23 -92 -46 -180 -57 -216 -91
-347 -96 -365 -2 -8 -15 -55 -29 -105 -14 -49 -27 -99 -29 -110 -3 -11 -16
-60 -31 -110 -15 -49 -28 -97 -30 -105 -2 -8 -22 -80 -45 -160 -23 -80 -43
-152 -45 -160 -2 -8 -4 -17 -5 -20 -1 -3 -2 -9 -1 -14 1 -4 -4 -14 -10 -22 -6
-8 -9 -14 -6 -14 3 0 2 -13 -3 -28 -16 -57 2 -77 187 -226 80 -64 84 -66 140
-66 49 0 62 4 88 28 17 15 80 59 140 97 61 38 115 73 120 77 13 11 137 91 150
98 6 3 75 48 155 101 80 52 183 120 230 149 47 30 87 57 90 60 3 3 22 14 43
25 20 11 37 22 37 25 0 3 20 16 45 30 25 14 45 28 45 32 0 5 4 8 8 8 5 0 47
25 93 55 91 59 89 58 168 110 29 19 55 35 57 35 3 0 10 5 17 11 7 6 89 60 182
120 94 60 177 113 185 119 43 29 186 120 195 124 12 5 21 -3 -127 109 -65 48
-122 87 -128 87 -5 0 -10 4 -10 9 0 5 -16 16 -35 25 -19 9 -37 21 -40 26 -3 6
-20 10 -36 10 -45 0 -81 -19 -232 -122 -30 -21 -59 -38 -65 -38 -6 0 -12 -4
-14 -8 -4 -11 -215 -152 -227 -152 -5 0 -12 -7 -15 -16 -3 -8 -10 -13 -15 -10
-5 4 -11 3 -13 -2 -2 -7 -325 -227 -376 -257 -46 -27 -238 -159 -243 -167 -3
-5 -10 -10 -15 -10 -10 -1 -113 -67 -132 -85 -6 -6 -21 -15 -32 -18 -11 -3
-20 -10 -20 -14 0 -4 -11 -13 -24 -19 l-24 -11 19 67 c21 70 26 89 33 122 3
11 7 24 10 28 3 5 7 19 10 33 3 13 19 71 36 129 17 58 33 112 34 120 9 39 29
109 41 147 8 23 16 52 19 65 2 13 7 30 10 38 3 8 8 26 10 40 3 14 15 59 26
100 11 41 23 83 25 93 2 10 7 27 10 37 3 10 8 27 10 37 2 10 20 77 40 148 20
72 38 137 40 146 2 9 13 47 25 85 12 38 23 76 25 85 2 9 8 32 13 51 21 77 -4
127 -91 183 -34 22 -110 74 -169 117 -59 43 -109 74 -111 70z"/>
<path d="M7239 2782 c-118 -83 -285 -210 -304 -232 -21 -23 -30 -109 -15 -139
14 -30 70 -190 75 -216 2 -11 4 -21 6 -22 2 -3 3 -6 13 -48 5 -16 17 -59 27
-94 11 -35 22 -78 25 -94 3 -17 10 -37 16 -44 6 -7 8 -13 5 -13 -3 0 -1 -15 5
-32 5 -18 27 -94 48 -168 21 -74 48 -169 60 -210 12 -41 31 -106 41 -145 11
-38 22 -77 24 -85 13 -47 67 -248 70 -261 2 -9 8 -33 13 -53 8 -28 7 -36 -3
-36 -11 0 -401 252 -432 279 -7 6 -14 11 -17 11 -8 0 -101 63 -108 74 -5 7 -8
7 -8 1 0 -7 -3 -7 -8 0 -4 6 -92 66 -197 135 -104 69 -191 128 -193 133 -2 4
-10 7 -18 7 -8 0 -14 3 -14 8 0 4 -23 20 -50 37 -28 16 -50 33 -50 38 0 4 -4
6 -9 3 -5 -4 -11 -3 -13 2 -4 9 -203 143 -238 160 -36 17 -80 20 -115 9 -27
-9 -105 -64 -130 -91 -5 -7 -53 -42 -105 -80 -52 -38 -97 -70 -99 -72 -7 -6
28 -34 43 -34 8 0 18 -5 21 -10 6 -10 62 -49 108 -75 10 -5 83 -53 163 -105
183 -120 196 -128 214 -137 8 -3 17 -9 20 -13 3 -3 57 -40 120 -80 63 -41 117
-78 118 -82 2 -5 8 -6 13 -2 5 3 9 0 9 -5 0 -6 4 -11 8 -11 8 0 55 -30 352
-226 58 -38 110 -71 115 -73 6 -2 26 -17 46 -32 20 -16 40 -29 43 -29 4 0 35
-19 69 -42 34 -24 70 -47 79 -53 10 -5 62 -40 115 -77 54 -37 139 -95 188
-129 50 -34 92 -65 95 -68 16 -19 57 -31 107 -31 52 0 62 4 96 35 21 19 42 35
48 35 5 0 9 4 9 8 0 4 25 25 56 47 109 78 127 102 120 157 -3 18 -5 33 -6 33
-1 0 -3 7 -5 15 -1 8 -22 80 -44 160 -35 121 -86 305 -96 345 -1 6 -4 17 -8
25 -3 8 -17 62 -32 120 -15 58 -33 125 -40 150 -18 60 -29 113 -27 123 1 4 -2
7 -6 7 -4 0 -8 8 -9 18 -1 19 0 16 -41 167 -40 149 -113 425 -117 445 -2 8
-13 47 -25 85 -11 39 -23 83 -26 99 -2 16 -7 32 -9 36 -2 3 -6 18 -8 31 -3 14
-14 56 -25 94 -11 39 -23 84 -28 100 -4 17 -8 32 -9 35 0 3 -4 14 -8 25 -3 11
-8 31 -11 45 -6 32 -37 144 -40 148 -2 1 -27 -15 -57 -36z"/>
</g>
</svg>
